<?xml version="1.0" encoding="UTF-8" standalone="no"?>
<!-- Created with Inkscape (http://www.inkscape.org/) -->

<svg
   width="326.64859mm"
   height="141.65677mm"
   viewBox="0 0 326.64859 141.65677"
   version="1.1"
   id="svg1"
   xml:space="preserve"
   inkscape:export-filename="programming.svg"
   inkscape:export-xdpi="96"
   inkscape:export-ydpi="96"
   xmlns:inkscape="http://www.inkscape.org/namespaces/inkscape"
   xmlns:sodipodi="http://sodipodi.sourceforge.net/DTD/sodipodi-0.dtd"
   xmlns="http://www.w3.org/2000/svg"
   xmlns:svg="http://www.w3.org/2000/svg"><sodipodi:namedview
     id="namedview1"
     pagecolor="#ffffff"
     bordercolor="#000000"
     borderopacity="0.25"
     inkscape:showpageshadow="2"
     inkscape:pageopacity="0.0"
     inkscape:pagecheckerboard="0"
     inkscape:deskcolor="#d1d1d1"
     inkscape:document-units="mm" /><defs
     id="defs1" /><g
     inkscape:label="Layer 1"
     inkscape:groupmode="layer"
     id="layer1"
     transform="translate(-47.051495,-216.39725)"><g
       style="fill:none;stroke-width:0.0453595"
       id="g3"
       transform="matrix(5.8330103,0,0,5.8330103,-69.608711,101.19743)"><circle
         cx="49.5"
         cy="22.5"
         r="1.5"
         fill="#83774d"
         id="circle1"
         style="stroke-width:0.0453595" /><path
         d="m 33,32.8498 c -0.4358,-0.0472 -0.8575,-0.0796 -1.2652,-0.0972 -0.4007,-0.0177 -0.8083,-0.0266 -1.2231,-0.0266 -1.1175,0 -2.2633,0.0914 -3.4371,0.274 0.0422,-0.1414 0.0879,-0.2651 0.1371,-0.3712 0.0562,-0.1119 0.1054,-0.2327 0.1476,-0.3623 0.0422,-0.1355 0.0773,-0.2917 0.1054,-0.4684 0.0281,-0.1768 0.0422,-0.4036 0.0422,-0.6805 0,-0.2828 -0.0246,-0.5509 -0.0738,-0.8042 -0.0492,-0.2592 -0.123,-0.4861 -0.2214,-0.6805 -0.0984,-0.2003 -0.2214,-0.3594 -0.369,-0.4772 -0.1406,-0.1179 -0.3058,-0.1768 -0.4956,-0.1768 -0.2109,0 -0.3901,0.053 -0.5377,0.1591 -0.1406,0.1061 -0.2566,0.2504 -0.3479,0.433 -0.0844,0.1827 -0.1476,0.3918 -0.1898,0.6275 -0.0352,0.2357 -0.0527,0.4861 -0.0527,0.7512 0,0.2651 0.0175,0.4949 0.0527,0.6893 0.0422,0.1886 0.0878,0.3535 0.1371,0.4949 0.0562,0.1414 0.1089,0.2681 0.1581,0.38 0.0492,0.1061 0.0844,0.2121 0.1054,0.3182 -0.485,-0.0471 -0.9629,-0.0825 -1.4339,-0.1061 -0.4639,-0.0235 -0.9278,-0.0353 -1.3917,-0.0353 -0.4639,0 -0.9313,0.0118 -1.4023,0.0353 -0.4639,0.0236 -0.9453,0.059 -1.4444,0.1061 0.4358,-1.0605 0.8154,-2.1122 1.1387,-3.155 0.3303,-1.0428 0.6115,-2.0916 0.8435,-3.1462 0.2319,-1.0546 0.4182,-2.121 0.5588,-3.1991 0.1476,-1.0782 0.2565,-2.1829 0.3268,-3.3141 0.5201,0.0589 1.0895,0.1031 1.708,0.1325 0.6256,0.0236 1.2652,0.0354 1.9189,0.0354 0.5553,0 1.093,-0.0118 1.6132,-0.0354 C 28.635,20.1267 29.12,20.0766 29.5628,20 c 0.0492,1.1253 0.1758,2.2329 0.3796,3.3229 0.2039,1.09 0.4569,2.1711 0.7591,3.2434 0.3093,1.0664 0.6608,2.1239 1.0544,3.1727 0.3936,1.0428 0.8083,2.0797 1.2441,3.1108 z m -5.9043,-6.858 C 27.0816,25.8799 27.0395,25.7149 26.9692,25.4969 26.9059,25.3084 26.811,25.061 26.6845,24.7546 26.558,24.4423 26.3717,24.0417 26.1257,23.5527 c -0.0562,0.3064 -0.1195,0.5803 -0.1898,0.8219 -0.0703,0.2356 -0.137,0.4507 -0.2003,0.6451 -0.0633,0.1886 -0.1195,0.3624 -0.1687,0.5214 -0.0422,0.1591 -0.0633,0.3093 -0.0633,0.4507 0,0.2946 0.0809,0.5244 0.2426,0.6894 0.1686,0.1591 0.3549,0.2386 0.5587,0.2386 0.2179,0 0.4007,-0.0884 0.5483,-0.2651 0.1476,-0.1768 0.2284,-0.3977 0.2425,-0.6629 z"
         fill="#c6b067"
         id="path1-6"
         style="stroke-width:0.0453595" /><path
         d="m 76,32.8498 c -0.4358,-0.0472 -0.8576,-0.0796 -1.2653,-0.0972 -0.4006,-0.0177 -0.8083,-0.0266 -1.2229,-0.0266 -1.1176,0 -2.2635,0.0914 -3.4372,0.274 0.0421,-0.1414 0.0878,-0.2651 0.1371,-0.3712 0.0561,-0.1119 0.1054,-0.2327 0.1475,-0.3623 0.0421,-0.1355 0.0774,-0.2917 0.1055,-0.4684 0.028,-0.1768 0.0421,-0.4036 0.0421,-0.6805 0,-0.2828 -0.0245,-0.5509 -0.0738,-0.8042 -0.0491,-0.2592 -0.1229,-0.4861 -0.2213,-0.6805 -0.0985,-0.2003 -0.2215,-0.3594 -0.3691,-0.4772 -0.1405,-0.1179 -0.3057,-0.1768 -0.4955,-0.1768 -0.2109,0 -0.3902,0.053 -0.5377,0.1591 -0.1407,0.1061 -0.2566,0.2504 -0.348,0.433 -0.0844,0.1827 -0.1476,0.3918 -0.1899,0.6275 -0.035,0.2357 -0.0527,0.4861 -0.0527,0.7512 0,0.2651 0.0177,0.4949 0.0527,0.6893 0.0423,0.1886 0.088,0.3535 0.1372,0.4949 0.0563,0.1414 0.109,0.2681 0.1581,0.38 0.0493,0.1061 0.0844,0.2121 0.1055,0.3182 -0.485,-0.0471 -0.9631,-0.0825 -1.434,-0.1061 -0.4639,-0.0235 -0.9277,-0.0353 -1.3916,-0.0353 -0.4639,0 -0.9314,0.0118 -1.4023,0.0353 -0.4639,0.0236 -0.9454,0.059 -1.4444,0.1061 0.4356,-1.0605 0.8153,-2.1122 1.1387,-3.155 0.3303,-1.0428 0.6114,-2.0916 0.8433,-3.1462 0.232,-1.0546 0.4182,-2.121 0.5589,-3.1991 0.1476,-1.0782 0.2565,-2.1829 0.3268,-3.3141 0.5202,0.0589 1.0896,0.1031 1.708,0.1325 0.6257,0.0236 1.2654,0.0354 1.9189,0.0354 0.5553,0 1.0931,-0.0118 1.6132,-0.0354 0.5272,-0.0235 1.0121,-0.0736 1.455,-0.1502 0.0493,1.1253 0.1758,2.2329 0.3795,3.3229 0.2038,1.09 0.457,2.1711 0.7591,3.2434 0.3094,1.0664 0.6608,2.1239 1.0545,3.1727 0.3935,1.0428 0.8083,2.0797 1.2441,3.1108 z m -5.9044,-6.858 c -0.014,-0.1119 -0.0561,-0.2769 -0.1265,-0.4949 -0.0633,-0.1885 -0.1582,-0.4359 -0.2847,-0.7423 -0.1265,-0.3123 -0.3127,-0.7129 -0.5587,-1.2019 -0.0563,0.3064 -0.1196,0.5803 -0.1898,0.8219 -0.0704,0.2356 -0.1371,0.4507 -0.2003,0.6451 -0.0633,0.1886 -0.1195,0.3624 -0.1688,0.5214 -0.0421,0.1591 -0.0633,0.3093 -0.0633,0.4507 0,0.2946 0.081,0.5244 0.2425,0.6894 0.1688,0.1591 0.3551,0.2386 0.5589,0.2386 0.218,0 0.4006,-0.0884 0.5481,-0.2651 0.1478,-0.1768 0.2286,-0.3977 0.2426,-0.6629 z"
         fill="#c6b067"
         id="path2-9"
         style="stroke-width:0.0453595" /><path
         d="m 76,32.8498 c -0.4358,-0.0472 -0.8576,-0.0796 -1.2653,-0.0972 -0.4006,-0.0177 -0.8083,-0.0266 -1.2229,-0.0266 -1.1176,0 -2.2635,0.0914 -3.4372,0.274 0.0421,-0.1414 0.0878,-0.2651 0.1371,-0.3712 0.0561,-0.1119 0.1054,-0.2327 0.1475,-0.3623 0.0421,-0.1355 0.0774,-0.2917 0.1055,-0.4684 0.028,-0.1768 0.0421,-0.4036 0.0421,-0.6805 0,-0.2828 -0.0245,-0.5509 -0.0738,-0.8042 -0.0491,-0.2592 -0.1229,-0.4861 -0.2213,-0.6805 -0.0985,-0.2003 -0.2215,-0.3594 -0.3691,-0.4772 -0.1405,-0.1179 -0.3057,-0.1768 -0.4955,-0.1768 -0.2109,0 -0.3902,0.053 -0.5377,0.1591 -0.1407,0.1061 -0.2566,0.2504 -0.348,0.433 -0.0844,0.1827 -0.1476,0.3918 -0.1899,0.6275 -0.035,0.2357 -0.0527,0.4861 -0.0527,0.7512 0,0.2651 0.0177,0.4949 0.0527,0.6893 0.0423,0.1886 0.088,0.3535 0.1372,0.4949 0.0563,0.1414 0.109,0.2681 0.1581,0.38 0.0493,0.1061 0.0844,0.2121 0.1055,0.3182 -0.485,-0.0471 -0.9631,-0.0825 -1.434,-0.1061 -0.4639,-0.0235 -0.9277,-0.0353 -1.3916,-0.0353 -0.4639,0 -0.9314,0.0118 -1.4023,0.0353 -0.4639,0.0236 -0.9454,0.059 -1.4444,0.1061 0.4356,-1.0605 0.8153,-2.1122 1.1387,-3.155 0.3303,-1.0428 0.6114,-2.0916 0.8433,-3.1462 0.232,-1.0546 0.4182,-2.121 0.5589,-3.1991 0.1476,-1.0782 0.2565,-2.1829 0.3268,-3.3141 0.5202,0.0589 1.0896,0.1031 1.708,0.1325 0.6257,0.0236 1.2654,0.0354 1.9189,0.0354 0.5553,0 1.0931,-0.0118 1.6132,-0.0354 0.5272,-0.0235 1.0121,-0.0736 1.455,-0.1502 0.0493,1.1253 0.1758,2.2329 0.3795,3.3229 0.2038,1.09 0.457,2.1711 0.7591,3.2434 0.3094,1.0664 0.6608,2.1239 1.0545,3.1727 0.3935,1.0428 0.8083,2.0797 1.2441,3.1108 z m -5.9044,-6.858 c -0.014,-0.1119 -0.0561,-0.2769 -0.1265,-0.4949 -0.0633,-0.1885 -0.1582,-0.4359 -0.2847,-0.7423 -0.1265,-0.3123 -0.3127,-0.7129 -0.5587,-1.2019 -0.0563,0.3064 -0.1196,0.5803 -0.1898,0.8219 -0.0704,0.2356 -0.1371,0.4507 -0.2003,0.6451 -0.0633,0.1886 -0.1195,0.3624 -0.1688,0.5214 -0.0421,0.1591 -0.0633,0.3093 -0.0633,0.4507 0,0.2946 0.081,0.5244 0.2425,0.6894 0.1688,0.1591 0.3551,0.2386 0.5589,0.2386 0.218,0 0.4006,-0.0884 0.5481,-0.2651 0.1478,-0.1768 0.2286,-0.3977 0.2426,-0.6629 z"
         fill="#c6b067"
         id="path3-4"
         style="stroke-width:0.0453595" /><path
         d="m 40.3164,20.426 c 0,0 -1.0179,9.7062 11.2157,10.2939 0,0 -1.9325,1.3597 -6.5141,1.5904 -4.5816,0.2307 -9.3,-2.0097 -10.4936,-11.5382 z"
         fill="#83774d"
         id="path4"
         style="stroke-width:0.0453595" /><path
         d="m 55.5399,28.4415 c 4.1297,-0.5056 6.0645,-2.72 6.4909,-4.6597 0.3292,-1.4982 -0.2205,-2.9087 -1.401,-3.5931 -1.2158,-0.7044 -2.3649,-0.4687 -3.264,0.0584 -0.1466,-0.2939 -0.4521,-0.4944 -0.8027,-0.4944 H 34.9067 c -0.4707,0 -0.861,0.3607 -0.8932,0.825 -0.0056,0.0847 -0.4194,7.2086 4.7735,11.0842 H 34.8951 C 34.4008,31.6619 34,32.0582 34,32.547 c 0,0.4888 0.4008,0.8851 0.8951,0.8851 h 25.7263 c 0.4944,0 0.8951,-0.3963 0.8951,-0.8851 0,-0.4888 -0.4007,-0.8851 -0.8951,-0.8851 H 52.683 c 1.2502,-0.9332 2.1731,-2.0543 2.8569,-3.2204 z m 4.1843,-6.7255 c 0.5081,0.2945 0.7215,0.9419 0.5572,1.6899 -0.2454,1.1163 -1.3955,2.4764 -3.8047,3.0703 0.5443,-1.4444 0.7933,-2.8339 0.9043,-3.9019 0.2683,-0.3427 1.2716,-1.4799 2.3432,-0.8583 z M 42.6171,31.6619 C 36.5968,29.6684 35.855,23.7287 35.7921,21.523 h 19.8855 c -0.0627,2.2068 -0.8048,8.1456 -6.8247,10.1389 z"
         fill="#c6b067"
         id="path5"
         style="stroke-width:0.0453595" /><path
         d="m 27.7681,40.49 c 0.37,0 0.6933,0.0733 0.97,0.22 0.2766,0.1467 0.49,0.3533 0.64,0.62 0.1533,0.2633 0.23,0.5683 0.23,0.915 0,0.3433 -0.0767,0.6483 -0.23,0.915 -0.15,0.2667 -0.365,0.4733 -0.645,0.62 -0.2767,0.1467 -0.5984,0.22 -0.965,0.22 h -1.315 v -3.51 z m -0.055,2.77 c 0.3233,0 0.575,-0.0883 0.755,-0.265 0.18,-0.1767 0.27,-0.4267 0.27,-0.75 0,-0.3233 -0.09,-0.575 -0.27,-0.755 -0.18,-0.18 -0.4317,-0.27 -0.755,-0.27 h -0.405 v 2.04 z m 3.2278,-2.77 V 44 h -0.855 v -3.51 z m 2.9496,1.11 c -0.0633,-0.1167 -0.155,-0.205 -0.275,-0.265 -0.1167,-0.0633 -0.255,-0.095 -0.415,-0.095 -0.2767,0 -0.4983,0.0917 -0.665,0.275 -0.1667,0.18 -0.25,0.4217 -0.25,0.725 0,0.3233 0.0867,0.5767 0.26,0.76 0.1767,0.18 0.4183,0.27 0.725,0.27 0.21,0 0.3867,-0.0533 0.53,-0.16 0.1467,-0.1067 0.2533,-0.26 0.32,-0.46 h -1.085 v -0.63 h 1.86 v 0.795 c -0.0633,0.2133 -0.1717,0.4117 -0.325,0.595 -0.15,0.1833 -0.3417,0.3317 -0.575,0.445 -0.2333,0.1133 -0.4967,0.17 -0.79,0.17 -0.3467,0 -0.6567,-0.075 -0.93,-0.225 -0.27,-0.1533 -0.4817,-0.365 -0.635,-0.635 -0.15,-0.27 -0.225,-0.5783 -0.225,-0.925 0,-0.3467 0.075,-0.655 0.225,-0.925 0.1533,-0.2733 0.365,-0.485 0.635,-0.635 0.27,-0.1533 0.5783,-0.23 0.925,-0.23 0.42,0 0.7733,0.1017 1.06,0.305 0.29,0.2033 0.4817,0.485 0.575,0.845 z m 2.3336,-1.11 V 44 h -0.855 v -3.51 z m 3.1446,0 v 0.685 h -0.93 V 44 h -0.855 v -2.825 h -0.93 V 40.49 Z m 2.6141,2.89 h -1.31 l -0.21,0.62 h -0.895 l 1.27,-3.51 h 0.99 l 1.27,3.51 h -0.905 z m -0.22,-0.66 -0.435,-1.285 -0.43,1.285 z m 2.5765,0.62 h 1.12 V 44 h -1.975 v -3.51 h 0.855 z m 5.6274,-2.85 V 44 h -0.855 v -1.445 h -1.33 V 44 h -0.855 v -3.51 h 0.855 v 1.375 h 1.33 V 40.49 Z m 2.8022,2.89 h -1.31 l -0.21,0.62 h -0.895 l 1.27,-3.51 h 0.99 l 1.27,3.51 h -0.905 z m -0.22,-0.66 -0.435,-1.285 -0.43,1.285 z m 3.5115,1.28 -0.73,-1.325 h -0.205 V 44 h -0.855 v -3.51 h 1.435 c 0.2767,0 0.5117,0.0483 0.705,0.145 0.1967,0.0967 0.3434,0.23 0.44,0.4 0.0967,0.1667 0.145,0.3533 0.145,0.56 0,0.2333 -0.0666,0.4417 -0.2,0.625 -0.13,0.1833 -0.3233,0.3133 -0.58,0.39 l 0.81,1.39 z m -0.935,-1.93 h 0.53 c 0.1567,0 0.2734,-0.0383 0.35,-0.115 0.08,-0.0767 0.12,-0.185 0.12,-0.325 0,-0.1333 -0.04,-0.2383 -0.12,-0.315 -0.0766,-0.0767 -0.1933,-0.115 -0.35,-0.115 h -0.53 z m 6.3818,-1.58 V 44 h -0.855 V 41.895 L 59.8672,44 h -0.69 l -0.79,-2.11 V 44 h -0.855 v -3.51 h 1.01 l 0.985,2.43 0.975,-2.43 z m 2.2748,3.545 c -0.33,0 -0.6333,-0.0767 -0.91,-0.23 -0.2733,-0.1533 -0.4917,-0.3667 -0.655,-0.64 -0.16,-0.2767 -0.24,-0.5867 -0.24,-0.93 0,-0.3433 0.08,-0.6517 0.24,-0.925 0.1633,-0.2733 0.3817,-0.4867 0.655,-0.64 0.2767,-0.1533 0.58,-0.23 0.91,-0.23 0.33,0 0.6317,0.0767 0.905,0.23 0.2767,0.1533 0.4933,0.3667 0.65,0.64 0.16,0.2733 0.24,0.5817 0.24,0.925 0,0.3433 -0.08,0.6533 -0.24,0.93 -0.16,0.2733 -0.3767,0.4867 -0.65,0.64 -0.2733,0.1533 -0.575,0.23 -0.905,0.23 z m 0,-0.78 c 0.28,0 0.5033,-0.0933 0.67,-0.28 0.17,-0.1867 0.255,-0.4333 0.255,-0.74 0,-0.31 -0.085,-0.5567 -0.255,-0.74 -0.1667,-0.1867 -0.39,-0.28 -0.67,-0.28 -0.2833,0 -0.51,0.0917 -0.68,0.275 -0.1667,0.1833 -0.25,0.4317 -0.25,0.745 0,0.31 0.0833,0.5583 0.25,0.745 0.17,0.1833 0.3967,0.275 0.68,0.275 z M 69.1927,44 h -0.855 l -1.43,-2.165 V 44 h -0.855 v -3.51 h 0.855 l 1.43,2.175 V 40.49 h 0.855 z m 3.6297,-3.51 -1.215,2.35 V 44 h -0.855 v -1.16 l -1.215,-2.35 h 0.97 l 0.68,1.47 0.675,-1.47 z"
         fill="#c6b067"
         id="path6"
         style="stroke-width:0.0453595" /></g></g></svg>
