<?xml version="1.0" encoding="UTF-8" standalone="no"?>
<!-- Created with Inkscape (http://www.inkscape.org/) -->

<svg
   width="127.2676mm"
   height="122.2314mm"
   viewBox="0 0 127.2676 122.2314"
   version="1.1"
   id="svg1"
   xml:space="preserve"
   inkscape:export-filename="web_design.svg"
   inkscape:export-xdpi="96"
   inkscape:export-ydpi="96"
   xmlns:inkscape="http://www.inkscape.org/namespaces/inkscape"
   xmlns:sodipodi="http://sodipodi.sourceforge.net/DTD/sodipodi-0.dtd"
   xmlns="http://www.w3.org/2000/svg"
   xmlns:svg="http://www.w3.org/2000/svg"><sodipodi:namedview
     id="namedview1"
     pagecolor="#ffffff"
     bordercolor="#000000"
     borderopacity="0.25"
     inkscape:showpageshadow="2"
     inkscape:pageopacity="0.0"
     inkscape:pagecheckerboard="0"
     inkscape:deskcolor="#d1d1d1"
     inkscape:document-units="mm" /><defs
     id="defs1" /><g
     inkscape:label="Layer 1"
     inkscape:groupmode="layer"
     id="layer1"
     transform="translate(-129.49245,-235.12364)"><path
       style="fill:#c6b067;fill-opacity:1"
       d="m 156.40613,357.34643 c -0.0706,-0.0174 -0.14495,-0.08 -0.18401,-0.15506 -0.0369,-0.0709 -0.0341,-0.28477 0.005,-0.36666 0.0692,-0.14581 0.27182,-0.20461 0.43296,-0.12563 0.17839,0.0874 0.22753,0.35468 0.0986,0.53607 -0.0634,0.0892 -0.22918,0.14154 -0.35226,0.11128 z m -1.63096,-0.66724 c -1.02317,-0.16994 -2.12668,-0.9525 -3.13761,-2.22503 -0.78859,-0.99267 -1.35967,-2.1476 -1.64033,-3.31739 -0.0845,-0.35222 -0.15867,-0.80328 -0.17344,-1.05486 l -0.0117,-0.19879 0.0523,-0.0411 c 0.0686,-0.054 0.16321,-0.0535 0.22327,0.001 0.0358,0.0326 0.0643,0.10861 0.12389,0.33008 0.4516,1.67902 1.24104,3.13964 2.29232,4.24126 0.58123,0.60906 1.08715,1.00151 1.63162,1.26568 0.28984,0.14063 0.46983,0.20093 0.7603,0.25472 0.26418,0.0489 0.42599,0.11193 0.53592,0.20869 0.14595,0.12847 0.15469,0.26335 0.0252,0.38857 -0.14542,0.14059 -0.39544,0.19448 -0.68168,0.14694 z m -2.35185,-0.0105 c -0.0942,-0.0197 -0.37584,-0.14134 -0.58547,-0.25285 -0.32533,-0.17307 -0.66221,-0.47036 -0.86327,-0.76183 -0.0414,-0.06 -0.10278,-0.14546 -0.13641,-0.18991 -0.0961,-0.12703 -0.0714,-0.26499 0.0585,-0.32663 0.11605,-0.0551 0.17244,-0.0417 0.29101,0.0688 0.28347,0.26417 0.95057,0.67621 1.31485,0.81213 0.17314,0.0646 0.24562,0.11405 0.31201,0.2129 0.0672,0.10001 0.0815,0.18459 0.0457,0.27024 -0.0522,0.12487 -0.25959,0.20425 -0.43685,0.16719 z m 7.78933,-0.12489 c -1.29496,-0.0813 -2.36403,-0.29351 -3.35631,-0.66618 -0.39938,-0.15 -0.621,-0.24894 -1.04416,-0.46618 -0.58177,-0.29866 -1.08618,-0.63425 -1.53913,-1.02398 -0.0899,-0.0774 -0.24386,-0.19764 -0.34213,-0.2673 -0.3542,-0.25107 -0.68575,-0.53204 -1.01045,-0.8563 -0.58365,-0.58287 -0.9287,-1.05357 -1.26618,-1.7273 -0.2811,-0.56117 -0.47461,-1.16439 -0.5779,-1.80147 -0.0504,-0.31083 -0.0707,-1.07255 -0.0369,-1.3888 0.17854,-1.67512 1.1499,-2.99994 2.72742,-3.71988 0.1303,-0.0595 0.33428,-0.1545 0.45328,-0.21119 1.16023,-0.55269 2.52057,-0.70102 3.74415,-0.40825 1.62761,0.38944 3.18122,1.52233 4.46239,3.25397 0.61525,0.83158 1.0203,1.59341 1.68057,3.16089 0.4808,1.14142 0.7325,1.58101 1.15664,2.02001 0.22315,0.23096 0.44352,0.39799 0.68729,0.52092 0.10348,0.0522 0.20697,0.11586 0.22997,0.14151 l 0.0418,0.0466 0.22569,-0.0844 c 3.8781,-1.4507 6.94717,-4.22079 9.25793,-8.35607 0.19486,-0.34872 0.86015,-1.66155 0.90015,-1.7763 l 0.0178,-0.051 -0.93401,-0.0122 c -5.92121,-0.0772 -11.19867,-1.03739 -15.7883,-2.87241 -2.24588,-0.89795 -4.4161,-2.06626 -6.19948,-3.33738 -0.17592,-0.12539 -0.47648,-0.33003 -0.66792,-0.45476 -0.92733,-0.60418 -1.78426,-1.2641 -2.61903,-2.01692 -0.15213,-0.13716 -0.28457,-0.2494 -0.29433,-0.2494 -0.0301,0 -2.36651,1.19963 -4.46206,2.29104 -2.72026,1.41677 -6.58132,3.46381 -10.41124,5.51979 -0.40206,0.21584 -0.75149,0.39243 -0.77651,0.39243 -0.0551,0 -0.10036,-0.0801 -0.0712,-0.12622 0.0101,-0.0161 0.12398,-0.0975 0.25298,-0.18092 0.129,-0.0834 0.45468,-0.2953 0.72373,-0.47082 1.07754,-0.70293 1.49937,-0.96369 2.84104,-1.75627 3.39793,-2.00728 7.10397,-4.07537 10.66406,-5.95089 0.33932,-0.17876 0.61449,-0.33135 0.61148,-0.33908 -0.003,-0.008 -0.14598,-0.1654 -0.31771,-0.35038 -0.66969,-0.72133 -1.13956,-1.2949 -1.6627,-2.02964 -0.081,-0.11383 -0.14998,-0.21016 -0.1532,-0.21406 -0.0106,-0.0128 -2.15068,1.30233 -3.28019,2.01576 -2.34908,1.48373 -4.59073,2.97206 -9.06026,6.0155 -2.09077,1.42367 -1.88453,1.28645 -1.89879,1.26338 -0.0249,-0.0403 1.77389,-1.38297 3.57331,-2.6673 3.24915,-2.31908 6.73814,-4.66651 10.03356,-6.7507 l 0.38156,-0.24132 -0.0325,-0.0493 c -0.55229,-0.83775 -0.99047,-1.58608 -1.42888,-2.44029 -0.12173,-0.23718 -0.23056,-0.43037 -0.24185,-0.42931 -0.0113,10e-4 -0.22348,0.14866 -0.47154,0.32801 -3.84366,2.77896 -7.03361,5.30702 -12.10562,9.5938 -0.45984,0.38865 -0.84063,0.70516 -0.8462,0.70335 -0.0372,-0.0121 0.0215,-0.0762 0.36964,-0.40346 2.88629,-2.71296 6.86551,-6.05225 10.79531,-9.05922 0.45762,-0.35017 1.99312,-1.50761 2.09249,-1.57731 0.002,-0.002 -0.0672,-0.16537 -0.15431,-0.36402 -0.32854,-0.7493 -0.60246,-1.47188 -0.85381,-2.25225 -0.0833,-0.25871 -0.16684,-0.52445 -0.1856,-0.59055 l -0.0341,-0.12017 -0.62048,0.50498 c -3.04207,2.4758 -5.67105,4.76597 -9.50108,8.2766 -0.6182,0.56664 -2.45232,2.25777 -2.73002,2.51717 -0.11056,0.10329 -0.15805,0.1302 -0.15805,0.0896 0,-0.0102 0.40428,-0.42618 0.8984,-0.92434 2.89137,-2.91497 6.6756,-6.39959 10.287,-9.47253 0.39358,-0.3349 1.66857,-1.40761 1.69903,-1.42949 0.003,-0.002 -0.0288,-0.12993 -0.071,-0.28375 -0.0846,-0.30841 -0.21016,-0.86407 -0.30339,-1.3427 -0.0333,-0.17074 -0.063,-0.31363 -0.0662,-0.31753 -0.0164,-0.0203 -2.62038,2.18574 -3.82664,3.24178 -2.53248,2.2171 -4.93907,4.43487 -8.97174,8.26782 -1.63539,1.5544 -1.53551,1.39314 0.3013,-0.48644 3.29957,-3.3764 7.78271,-7.55639 11.89256,-11.08841 0.28712,-0.24675 0.52203,-0.45842 0.52203,-0.47037 0,-0.012 -0.0251,-0.19954 -0.0558,-0.41685 -0.10741,-0.76048 -0.17433,-1.44816 -0.22976,-2.36126 -0.0306,-0.50344 -0.0306,-2.31202 0,-2.83163 0.12403,-2.10839 0.40181,-3.94561 0.89041,-5.88904 1.49134,-5.93192 4.843,-11.83882 9.81601,-17.29953 1.32552,-1.45551 3.00226,-3.11117 4.66944,-4.61074 1.32435,-1.19121 2.46549,-2.1559 4.62764,-3.91211 0.45014,-0.36563 0.88194,-0.7214 0.95955,-0.79061 1.62491,-1.44896 3.62431,-3.1243 7.19667,-6.03027 2.93811,-2.39003 4.74294,-3.88111 4.76391,-3.93576 0.0243,-0.0634 -0.30218,-1.80469 -0.9256,-4.93586 -1.00696,-5.05755 -1.35627,-7.08061 -1.6373,-9.48267 -0.0272,-0.23283 -0.0824,-0.64347 -0.12257,-0.91252 -0.82793,-5.54571 -0.40874,-10.06334 1.28931,-13.89473 1.01322,-2.28618 2.45529,-4.21865 4.17699,-5.59746 1.16272,-0.93115 2.49236,-1.66488 3.88526,-2.14398 2.09475,-0.72051 4.30016,-0.80859 6.30098,-0.25167 3.03913,0.84594 5.74899,3.34225 7.1227,6.5614 0.50053,1.17294 0.83977,2.48327 0.98685,3.81178 0.0714,0.64464 0.0857,0.92968 0.0856,1.70274 -1.2e-4,0.78096 -0.0162,1.09905 -0.0874,1.73096 -0.0216,0.19144 -0.038,0.38965 -0.0366,0.44047 0.001,0.0508 -0.0138,0.15242 -0.0339,0.22578 -0.0201,0.0734 -0.0629,0.28155 -0.095,0.46264 -0.23458,1.32213 -0.64877,2.6566 -1.22342,3.9417 -0.074,0.16557 -0.2262,0.51694 -0.33814,0.78082 -0.26051,0.61411 -0.3751,0.86287 -0.6587,1.42992 -1.21604,2.43144 -2.89264,4.7544 -5.2723,7.30486 -0.43215,0.46317 -2.06684,2.09177 -2.61168,2.60194 -2.09102,1.95799 -4.30559,3.83967 -7.26219,6.17053 -0.27422,0.21619 -0.70179,0.55358 -0.95015,0.74977 -0.24835,0.19618 -0.45439,0.35892 -0.45785,0.36163 -0.007,0.005 0.0629,0.53344 0.49717,3.76157 0.57266,4.25664 0.89713,6.71229 1.2318,9.32274 0.0325,0.25353 0.0604,0.46209 0.0619,0.46346 0.002,10e-4 0.17215,-0.0301 0.37911,-0.0699 1.87336,-0.36048 3.75251,-0.58427 5.53156,-0.65875 0.66056,-0.0277 2.26687,-0.0114 2.83163,0.0286 1.97456,0.13996 3.64556,0.44815 5.32069,0.98134 l 0.32534,0.10355 0.81295,-0.39864 c 6.25641,-3.06797 12.6132,-5.91222 19.06332,-8.52959 0.42427,-0.17217 0.83623,-0.33942 0.91545,-0.37167 l 0.14405,-0.0586 0.0106,-0.24632 c 0.006,-0.13548 0.0196,-1.04219 0.0305,-2.01491 0.0644,-5.7018 0.16312,-10.73386 0.21158,-10.78232 0.0433,-0.0433 14.69545,-3.90737 16.80126,-4.43081 0.13167,-0.0327 0.25111,-0.055 0.26543,-0.0495 0.0392,0.0151 0.051,1.1392 0.0677,6.45295 0.008,2.54324 0.0185,4.628 0.0233,4.63279 0.005,0.005 0.55426,-0.17338 1.22105,-0.39595 6.877,-2.29544 13.82389,-4.37357 21.15669,-6.32892 0.71514,-0.1907 1.23935,-0.32127 1.28982,-0.32127 0.31105,0 0.52462,0.37217 0.38529,0.67142 -0.072,0.1546 -0.12935,0.18186 -0.6939,0.32967 -7.57411,1.98301 -14.93452,4.16097 -22.05605,6.52641 l -1.29983,0.43174 -0.0121,2.36446 c -0.007,1.30046 -0.01,2.36686 -0.007,2.36978 0.003,0.003 0.31392,-0.0922 0.69109,-0.21148 3.79776,-1.20062 8.13023,-2.50061 12.19409,-3.65893 l 0.87795,-0.25024 0.0104,-0.20831 c 0.006,-0.11456 0.0196,-0.64433 0.0309,-1.17726 0.0252,-1.18912 0.0465,-1.63818 0.0786,-1.65798 0.0824,-0.0509 0.65391,-0.0443 0.70635,0.008 0.027,0.027 0.0322,0.0979 0.0393,0.53159 0.006,0.37439 0.0139,0.50267 0.0314,0.50936 0.0128,0.005 0.0901,-0.008 0.17165,-0.0285 0.48713,-0.12291 0.98784,-0.13751 1.34181,-0.0391 0.17657,0.0491 0.37605,0.14091 0.53037,0.24414 0.17254,0.11543 0.47752,0.43328 0.59978,0.62509 0.0569,0.0893 0.11116,0.1629 0.12055,0.16357 0.009,6.7e-4 0.65285,-0.17188 1.42992,-0.38346 3.30292,-0.89928 4.71755,-1.27102 4.8368,-1.27102 0.14002,0 0.2785,0.0878 0.35609,0.22578 0.0508,0.0904 0.0582,0.12154 0.0582,0.24598 0,0.12557 -0.007,0.15338 -0.0566,0.23415 -0.0388,0.0629 -0.0831,0.10502 -0.14111,0.13422 -0.0465,0.0234 -0.46127,0.14088 -0.92176,0.26103 -1.6899,0.44095 -5.17315,1.3752 -5.18997,1.39202 -0.004,0.004 0.0247,0.094 0.0631,0.20079 0.0384,0.10676 0.14822,0.42694 0.24412,0.71151 0.31315,0.92927 0.45269,1.26852 0.63672,1.54802 0.18397,0.27941 0.40771,0.50443 0.63601,0.63968 0.20126,0.11923 0.37244,0.16299 0.82671,0.2113 0.11646,0.0124 0.20671,0.0587 0.25343,0.12998 0.0258,0.0393 0.0273,0.0582 0.009,0.11317 -0.0278,0.0841 -0.10757,0.15116 -0.27325,0.2295 -0.41238,0.19498 -1.01328,0.20743 -1.53341,0.0318 -0.4306,-0.14542 -0.7508,-0.37907 -1.37678,-1.00464 -0.51319,-0.51286 -0.66986,-0.6471 -1.00329,-0.85968 -0.52016,-0.33163 -0.93979,-0.49123 -1.47066,-0.55935 l -0.0972,-0.0125 -0.007,3.97617 c -0.004,2.1869 -0.004,3.98018 -5.4e-4,3.98508 0.003,0.005 0.27859,-0.0609 0.61173,-0.14622 1.75329,-0.44901 5.09229,-1.27842 7.03097,-1.74649 1.26921,-0.30644 1.29487,-0.31197 1.38135,-0.29757 0.23092,0.0384 0.38792,0.23595 0.38683,0.48669 -7.6e-4,0.17629 -0.1211,0.34391 -0.27685,0.38562 -0.0389,0.0104 -0.54917,0.13299 -1.13384,0.27235 -1.99344,0.47515 -2.86901,0.68933 -5.43958,1.3306 l -2.57031,0.64121 -0.0131,2.05364 c -0.0174,2.72174 -0.0403,3.99097 -0.0768,4.24414 -0.10237,0.71105 -0.44994,1.44683 -1.01833,2.15572 -0.18867,0.23531 -0.67847,0.73337 -0.89643,0.91155 -0.0804,0.0657 -0.14388,0.12154 -0.14111,0.12408 0.003,0.003 0.36487,-0.0706 0.80466,-0.16261 2.32555,-0.48632 5.58414,-1.13732 7.98689,-1.59563 2.3621,-0.45055 2.35194,-0.44901 2.50253,-0.3806 0.15541,0.0706 0.27155,0.25856 0.27224,0.44059 6.8e-4,0.17871 -0.0676,0.29959 -0.20287,0.35922 -0.0382,0.0169 -0.57329,0.12406 -1.18901,0.23824 -15.33608,2.84396 -29.68598,6.27611 -43.02948,10.29162 -1.42936,0.43014 -2.6318,0.79989 -2.64534,0.81343 -0.006,0.006 0.0576,0.21771 0.14094,0.47091 0.52766,1.60341 0.85439,3.15871 1.08319,5.15615 0.0247,0.21567 0.0477,0.39445 0.051,0.39729 0.003,0.003 0.23048,-0.0575 0.50471,-0.13403 12.01815,-3.35481 24.43106,-6.04296 36.85822,-7.98204 3.1632,-0.49358 7.49716,-1.10669 7.64822,-1.08197 0.24611,0.0403 0.38967,0.25507 0.36003,0.5387 -0.0234,0.22381 -0.13663,0.39563 -0.31876,0.48369 -0.10787,0.0522 -0.18498,0.0655 -1.03845,0.18025 -13.81937,1.85733 -27.89998,4.71952 -41.57133,8.45026 -0.65197,0.17791 -2.23381,0.61411 -2.32066,0.63993 -0.0307,0.009 -0.0334,0.0246 -0.0234,0.13549 0.0823,0.91548 0.0968,2.88126 0.0294,4.01044 -0.21106,3.54038 -0.98894,6.77436 -2.35558,9.79311 -1.53918,3.39989 -3.79613,6.43718 -6.71277,9.03373 -5.08944,4.53089 -11.15336,7.58691 -17.83645,8.98898 -1.49045,0.31269 -3.15505,0.5551 -4.60022,0.6699 -0.26905,0.0214 -0.54716,0.0449 -0.61803,0.0523 l -0.12884,0.0135 -0.17375,0.40452 c -0.59467,1.38447 -1.27504,2.66872 -2.04406,3.85833 -0.64527,0.9982 -1.55918,2.22364 -2.23749,3.0002 -1.50847,1.72699 -3.23034,3.13182 -5.18361,4.22918 -0.39578,0.22235 -1.26632,0.64811 -1.71214,0.83736 -1.80168,0.76482 -3.60628,1.21418 -5.53156,1.3774 -0.24151,0.0205 -1.53088,0.0393 -1.74978,0.0256 z m 0.38202,-4.12572 c 0.1911,-0.0975 0.29885,-0.26323 0.31776,-0.48874 0.0128,-0.15249 -0.0229,-0.29254 -0.10658,-0.41896 -0.19251,-0.29063 -0.65416,-0.31679 -0.89346,-0.0506 -0.10763,0.11971 -0.15125,0.24619 -0.14943,0.43334 0.002,0.26099 0.14037,0.46312 0.37262,0.54641 0.12717,0.0456 0.34788,0.0353 0.45909,-0.0214 z m -2.50441,-0.39617 c 0.0404,-0.0246 0.0675,-0.0612 0.0826,-0.11157 0.0198,-0.0662 0.0167,-0.0934 -0.027,-0.23348 -0.0383,-0.12284 -0.0804,-0.2026 -0.18699,-0.35402 -0.30532,-0.43387 -1.48963,-2.07977 -1.52493,-2.11927 -0.0881,-0.0986 -0.27589,-0.019 -0.25083,0.10633 0.006,0.0309 0.29189,0.53294 0.6349,1.11559 0.34301,0.58266 0.65817,1.11864 0.70035,1.19108 0.0888,0.15237 0.22676,0.30515 0.34851,0.38579 0.0995,0.0659 0.1414,0.0696 0.22341,0.0196 z m 1.31336,-1.75116 c 0.0824,-0.0315 0.14412,-0.0744 0.2286,-0.15881 0.0977,-0.0977 0.12187,-0.13551 0.15523,-0.24352 0.0791,-0.25598 0.0469,-0.43642 -0.1478,-0.82948 -0.24377,-0.49211 -0.56589,-0.9345 -0.98733,-1.35598 -0.7313,-0.73137 -1.51224,-1.16461 -2.25625,-1.25171 -0.25196,-0.0295 -0.97897,-0.0114 -1.07001,0.0267 -0.0827,0.0345 -0.16046,0.12841 -0.17628,0.21274 -0.0286,0.15262 0.067,0.29288 0.24121,0.35393 0.17628,0.0618 0.48905,0.2313 0.70371,0.38147 0.1152,0.0806 0.25913,0.1776 0.31985,0.21559 0.28493,0.17823 0.73784,0.49552 0.87757,0.61478 0.18121,0.15466 0.39653,0.37267 0.55095,0.55782 0.21323,0.25566 0.48563,0.71628 0.61057,1.03244 0.0848,0.21466 0.25783,0.39183 0.45348,0.46439 0.13236,0.0491 0.33697,0.0407 0.4965,-0.0203 z M 178.2185,338.5604 c 0.41551,-1.39331 0.87173,-3.32305 1.06342,-4.49805 0.40878,-2.50582 0.66888,-5.23113 0.79816,-8.36319 0.0779,-1.8876 0.14875,-5.26815 0.11038,-5.26815 -0.0481,0 -3.04944,1.19473 -4.82247,1.91964 -5.72672,2.34139 -11.21868,4.76717 -16.82693,7.43243 l -0.76849,0.36521 0.56152,0.55563 c 2.1909,2.1679 4.59159,3.8788 7.31458,5.21288 3.49256,1.7111 7.51373,2.73923 11.65724,2.9805 0.59646,0.0347 0.77654,0.0412 0.79359,0.0287 0.007,-0.005 0.0606,-0.16968 0.119,-0.36557 z m 2.5158,0.16758 c 3.38772,-0.49153 6.44865,-1.41616 9.06464,-2.7382 2.84589,-1.43821 5.22466,-3.37378 7.08143,-5.76205 2.52272,-3.24484 4.09001,-7.34094 4.64843,-12.14857 0.0925,-0.79626 0.15772,-1.62424 0.2016,-2.55881 0.0231,-0.49164 0.0323,-2.60515 0.0115,-2.62599 -0.026,-0.026 -3.54202,1.09917 -6.14799,1.96754 -4.4063,1.46827 -9.08409,3.13917 -13.21967,4.72203 l -0.3033,0.11609 -0.0125,0.38901 c -0.0551,1.71042 -0.11386,2.96251 -0.19959,4.25546 -0.0202,0.30527 -0.0454,0.92334 -0.0559,1.37349 -0.11817,5.06408 -0.57788,8.98496 -1.46926,12.53148 -0.0716,0.28503 -0.13026,0.52421 -0.13026,0.53152 0,0.0217 0.0521,0.0165 0.53092,-0.053 z m 7.78952,-4.00163 c -0.0125,-0.0332 -0.0165,-0.0665 -0.009,-0.0739 0.008,-0.007 0.20022,-0.12533 0.42788,-0.26195 1.17571,-0.70559 2.29513,-1.49705 3.31141,-2.34128 2.08282,-1.73021 3.8137,-3.7737 5.18738,-6.12427 1.3288,-2.27377 2.20058,-4.7581 2.89514,-8.2503 0.0617,-0.31044 0.12145,-0.58256 0.13268,-0.6047 0.0226,-0.0446 0.0914,-0.082 0.15073,-0.082 0.064,0 0.16001,0.0553 0.18279,0.10527 0.0138,0.0303 0.0214,0.18541 0.0214,0.43686 0,2.25722 -0.70064,4.86087 -2.01605,7.4918 -2.02294,4.04603 -5.13321,7.27026 -8.78365,9.10546 -0.44765,0.22504 -0.92292,0.44214 -1.27517,0.58248 -0.10623,0.0423 -0.19535,0.077 -0.19805,0.077 -0.003,0 -0.0151,-0.0272 -0.0277,-0.0604 z m 6.24908,-6.88549 c -0.0433,-0.021 -0.0821,-0.0901 -0.0821,-0.14624 0,-0.0191 0.0809,-0.12758 0.17972,-0.24103 0.5002,-0.57409 0.99259,-1.30709 1.45305,-2.16306 0.22806,-0.42394 0.65051,-1.34696 0.82049,-1.7927 0.1515,-0.39728 0.33464,-0.77529 0.40084,-0.82737 0.0607,-0.0478 0.12046,-0.0485 0.17771,-0.002 0.0418,0.0338 0.0448,0.0502 0.0509,0.27828 0.008,0.3118 -0.0343,0.56911 -0.17528,1.05734 -0.12388,0.42903 -0.24238,0.73068 -0.44422,1.1308 -0.4903,0.97195 -1.08749,1.71841 -2.04929,2.56152 -0.19558,0.17145 -0.23812,0.18999 -0.33182,0.14462 z m -39.04116,7.58455 c 0.0688,-0.0541 0.10008,-0.16549 0.0663,-0.23605 -0.0311,-0.0649 -0.0379,-0.0692 -0.52424,-0.33178 -1.25548,-0.67781 -2.41751,-1.47619 -3.40549,-2.33975 -0.32082,-0.28042 -0.99817,-0.95768 -1.27788,-1.27771 -1.19007,-1.36158 -2.1297,-2.88783 -2.95831,-4.8052 -1.08483,-2.51025 -1.5918,-4.63341 -1.79753,-7.52791 -0.0415,-0.5836 -0.048,-2.76235 -0.0101,-3.35844 0.11987,-1.88385 0.31335,-3.40926 0.82139,-6.47584 0.046,-0.27745 0.0967,-0.62299 0.11268,-0.76787 0.016,-0.14487 0.0468,-0.42427 0.0684,-0.62088 0.0216,-0.19662 0.0598,-0.46941 0.085,-0.60621 0.0252,-0.13679 0.0457,-0.27014 0.0457,-0.29633 0,-0.065 -0.0627,-0.12287 -0.13294,-0.12287 -0.0878,0 -0.12408,0.0287 -0.16005,0.12678 -0.0719,0.19592 -0.20051,0.50111 -0.34705,0.82337 -0.21282,0.468 -0.31248,0.72345 -0.46875,1.20153 -0.62157,1.9015 -1.04968,4.12248 -1.24266,6.44669 -0.10829,1.30424 -0.12343,2.99575 -0.0375,4.1957 0.21133,2.95258 0.8956,5.65266 1.98269,7.82348 0.85495,1.70726 2.04335,3.33493 3.4918,4.78245 1.60841,1.60737 3.26119,2.68124 5.00487,3.25182 0.53194,0.17407 0.59516,0.1847 0.68375,0.11502 z m -2.20554,-3.49633 c 0.0655,-0.0655 0.073,-0.0829 0.073,-0.16765 0,-0.0813 -0.0101,-0.10735 -0.0722,-0.18565 -0.11712,-0.14768 -0.30692,-0.31397 -0.6498,-0.56931 -0.62372,-0.46448 -1.15552,-0.92954 -1.51277,-1.32294 -0.38569,-0.4247 -0.95898,-1.12182 -1.22519,-1.48981 -0.0742,-0.1026 -0.14948,-0.19758 -0.16723,-0.21107 -0.0177,-0.0135 -0.0713,-0.0248 -0.1189,-0.0251 -0.13094,-9.1e-4 -0.19932,0.0712 -0.18676,0.19695 0.0127,0.12668 0.38495,0.89971 0.59092,1.22698 0.3054,0.48526 0.87638,1.14328 1.41343,1.62889 0.21784,0.19698 0.68688,0.55744 0.8937,0.68681 0.28009,0.1752 0.61529,0.30151 0.80655,0.30392 0.071,8.9e-4 0.0921,-0.009 0.15522,-0.072 z m 4.19912,-2.74228 c 5.79677,-2.80876 11.86429,-5.51589 18.00955,-8.03527 1.06466,-0.43648 3.14718,-1.274 3.92289,-1.57765 0.28458,-0.11139 0.52935,-0.21176 0.54394,-0.22304 0.0227,-0.0175 0.0247,-0.28141 0.0139,-1.8079 -0.0119,-1.68184 -0.0438,-3.71614 -0.0584,-3.73082 -0.0125,-0.0125 -1.96482,0.83285 -3.34982,1.45034 -6.99204,3.1173 -13.65163,6.43768 -20.066,10.00464 -1.45111,0.80694 -1.96624,1.10342 -1.96431,1.13053 0.001,0.0143 0.10178,0.16983 0.22392,0.34575 0.51016,0.73477 1.19885,1.62255 1.77086,2.2828 0.16433,0.18967 0.31526,0.36536 0.33538,0.3904 0.0201,0.0251 0.0396,0.0455 0.0433,0.0455 0.004,0 0.26236,-0.12389 0.57489,-0.27532 z m 47.04439,-3.00848 c 0.2648,-0.13196 0.31588,-0.50825 0.0986,-0.72646 -0.0694,-0.0697 -0.10804,-0.0921 -0.19108,-0.11067 -0.3017,-0.0675 -0.54731,0.12632 -0.54669,0.43145 2.8e-4,0.13654 0.03,0.22493 0.10594,0.31498 0.12008,0.14239 0.35075,0.18163 0.53322,0.0907 z m -50.0385,-0.40994 c 1.6817,-0.97604 4.63516,-2.60349 6.91137,-3.80839 5.80255,-3.07154 11.72434,-5.91619 18.06222,-8.67657 l 0.43274,-0.18847 -0.005,-0.37245 c -0.0126,-0.93536 -0.16136,-4.87178 -0.20341,-5.38263 -0.01,-0.12138 -0.0152,-0.1359 -0.0454,-0.12631 -0.0492,0.0156 -1.71904,0.81839 -1.73521,0.8342 -0.007,0.007 0.0158,0.13159 0.0516,0.27627 0.12889,0.52053 0.15009,0.71761 0.14976,1.39195 -3.3e-4,0.65607 -0.0154,0.82168 -0.12241,1.34525 -0.40312,1.97243 -1.7292,3.59087 -3.5202,4.29631 -1.78434,0.70282 -4.14688,0.59022 -5.89043,-0.28074 -0.569,-0.28424 -0.95658,-0.5668 -1.51084,-1.10147 l -0.20708,-0.19976 -0.40452,0.22516 c -3.79788,2.11396 -6.84466,3.90601 -10.08371,5.93102 -1.76105,1.10099 -4.0274,2.57046 -4.0274,2.61131 0,0.0335 0.57158,1.17152 0.78196,1.55684 0.35431,0.64894 1.05613,1.82504 1.08906,1.82504 0.004,0 0.12858,-0.0704 0.27694,-0.15656 z m -0.2644,-3.40663 c -0.0418,-0.0445 -0.058,-0.13624 -0.0315,-0.17894 0.0178,-0.0287 0.59259,-0.48967 0.89079,-0.71428 0.55211,-0.41587 1.48384,-0.97142 2.34183,-1.39632 0.46583,-0.23069 0.75979,-0.35094 1.25295,-0.51256 0.38012,-0.12457 0.42174,-0.1266 0.4714,-0.023 0.0387,0.0808 7e-4,0.13356 -0.16772,0.23295 -0.40879,0.24123 -0.97263,0.55681 -1.46719,0.82118 -1.02034,0.54542 -2.07053,1.14782 -2.78411,1.59698 -0.37763,0.23769 -0.42972,0.25559 -0.5064,0.17397 z m 1.54543,-0.11489 c -0.0309,-0.0223 -0.0423,-0.0494 -0.0421,-0.10006 1.6e-4,-0.0382 0.007,-0.0787 0.0141,-0.09 0.0285,-0.0425 1.34563,-0.90248 1.7542,-1.14544 0.119,-0.0708 0.3349,-0.18686 0.47978,-0.25797 0.29892,-0.14673 0.37564,-0.15911 0.41926,-0.0676 0.0347,0.0727 0.003,0.12524 -0.18708,0.30719 -0.38797,0.37201 -0.99374,0.75864 -1.82862,1.16709 -0.43365,0.21215 -0.53262,0.2425 -0.6096,0.18689 z m 49.75055,1.91649 c 0.0288,-0.0111 0.42339,-0.47456 0.68319,-0.80255 0.52888,-0.66771 1.11425,-1.75507 1.53669,-2.85453 1.12832,-2.93663 1.40421,-6.1156 0.8646,-9.96244 -0.59276,-4.2257 -1.96536,-8.25092 -3.99966,-11.72917 -0.67229,-1.14949 -1.51657,-2.36439 -2.32848,-3.35067 -1.37915,-1.67533 -2.81712,-2.90699 -4.3681,-3.74139 -0.2132,-0.1147 -0.27709,-0.12222 -0.35724,-0.0421 -0.097,0.097 -0.0805,0.14339 0.11904,0.33515 0.0957,0.092 0.36454,0.34981 0.59737,0.573 1.14303,1.09565 2.10232,2.13568 2.94008,3.18751 1.53249,1.9241 2.9703,4.49603 4.01159,7.17586 1.25304,3.22477 2.0027,6.43843 2.23838,9.59556 0.12557,1.68193 0.10828,3.46331 -0.0473,4.87303 -0.17438,1.58028 -0.5614,3.11825 -1.16473,4.62845 -0.30254,0.7573 -0.58948,1.39767 -0.81778,1.82503 -0.0962,0.18004 -0.10166,0.21002 -0.0483,0.26341 0.0383,0.0383 0.0854,0.047 0.14059,0.0258 z m -52.81714,-2.5251 c 3.87608,-2.58536 8.43798,-5.35911 13.21719,-8.03639 0.28198,-0.15797 0.5127,-0.29273 0.5127,-0.29949 0,-0.007 -0.0352,-0.0545 -0.0782,-0.106 -0.50647,-0.60719 -1.04534,-1.49973 -1.40538,-2.32777 -0.21089,-0.48501 -0.45228,-1.1974 -0.56907,-1.67944 -0.0226,-0.0931 -0.0472,-0.17629 -0.0548,-0.1848 -0.0249,-0.0279 -2.5503,1.59954 -4.51535,2.90977 -2.89505,1.9303 -5.90633,4.04706 -8.38515,5.89429 l -0.66167,0.49307 0.0286,0.1005 c 0.29813,1.0486 0.66609,2.10882 1.05717,3.04605 0.19783,0.4741 0.24565,0.58223 0.25751,0.58223 0.005,0 0.27323,-0.17641 0.59649,-0.39202 z m 29.62841,-3.2028 c 5.86635,-2.26197 12.2319,-4.48335 18.81011,-6.56416 0.29606,-0.0936 0.30573,-0.0983 0.30567,-0.14764 -4e-5,-0.028 -0.017,-0.28377 -0.0377,-0.56834 -0.0952,-1.30866 -0.25703,-2.59667 -0.48113,-3.82882 -0.0869,-0.47767 -0.28695,-1.44132 -0.30265,-1.45772 -0.005,-0.005 -0.0991,0.0223 -0.20971,0.0606 -2.52561,0.8742 -3.28533,1.14122 -4.73548,1.66441 -4.38191,1.5809 -8.44981,3.15501 -12.68119,4.90709 -0.38288,0.15854 -0.80198,0.33344 -0.93133,0.38866 l -0.23518,0.1004 0.009,0.61138 c 0.005,0.33626 0.009,1.59987 0.009,2.80802 0,1.45189 0.006,2.19662 0.0188,2.19661 0.0104,-2e-5 0.21778,-0.0768 0.46096,-0.17051 z m 2.2066,-4.83459 c -0.0758,-0.0305 -0.0783,-0.14921 -0.004,-0.19104 0.0284,-0.016 1.04439,-0.4443 1.54156,-0.64987 0.27774,-0.11484 0.89037,-0.33934 1.21355,-0.44472 0.20247,-0.066 0.39635,-0.10479 0.59416,-0.11883 0.15892,-0.0113 0.16574,-0.0101 0.21304,0.0372 0.0682,0.0682 0.0635,0.13579 -0.0145,0.20934 -0.26281,0.24787 -0.96273,0.49926 -2.61778,0.94023 -0.33114,0.0882 -0.66131,0.17762 -0.73371,0.19864 -0.14772,0.0429 -0.13595,0.0417 -0.19235,0.019 z m -1.66784,-0.24558 c -0.0532,-0.0419 -0.0641,-0.10515 -0.0261,-0.15239 0.041,-0.051 1.01875,-0.44892 1.87678,-0.76387 0.65941,-0.24205 2.07641,-0.72374 2.47414,-0.84105 0.60318,-0.17792 1.31219,-0.32222 1.37828,-0.28053 0.046,0.029 0.0692,0.11558 0.045,0.16852 -0.024,0.0527 -0.32972,0.21057 -0.71775,0.3707 -0.76526,0.31581 -2.54617,0.89818 -3.78178,1.23666 -0.37301,0.10218 -1.15598,0.30054 -1.1875,0.30084 -0.006,6e-5 -0.0339,-0.0174 -0.0611,-0.0389 z m -31.47521,3.80537 c 3.67998,-2.75984 7.64234,-5.50086 11.9523,-8.2682 0.45015,-0.28903 0.82521,-0.53185 0.83349,-0.5396 0.008,-0.008 -0.002,-0.11485 -0.0228,-0.238 -0.0935,-0.55374 -0.16026,-1.255 -0.18564,-1.95128 l -0.0136,-0.3727 -0.59266,0.39868 c -4.58706,3.08566 -9.1616,6.38486 -13.01646,9.38761 l -0.15654,0.12193 0.0117,0.0941 c 0.0207,0.1673 0.19318,1.00392 0.30047,1.4577 0.0574,0.24293 0.10442,0.44825 0.10442,0.45626 0,0.008 0.008,0.0146 0.0186,0.0146 0.0102,0 0.35526,-0.25247 0.7667,-0.56103 z m -0.6025,-2.61502 c 3.85916,-2.99887 8.12011,-6.08149 12.35725,-8.93994 0.43462,-0.2932 0.8008,-0.54617 0.81374,-0.56215 0.0144,-0.0178 0.0236,-0.0877 0.0237,-0.18068 5.5e-4,-0.44996 0.10616,-1.51874 0.226,-2.28711 0.54043,-3.46502 1.85093,-6.34258 4.02465,-8.83718 0.6304,-0.72347 1.62152,-1.69665 2.36257,-2.31982 1.64379,-1.3823 4.00094,-2.59331 6.95677,-3.57413 0.25612,-0.085 0.46567,-0.16213 0.46567,-0.17144 0,-0.009 -0.0674,-0.55259 -0.1497,-1.20728 -0.34737,-2.762 -0.74174,-5.56097 -1.14991,-8.16126 -0.1927,-1.22759 -0.50592,-3.12789 -0.52142,-3.16342 -0.0133,-0.0305 -0.64911,0.44571 -2.38408,1.78552 -9.4889,7.32769 -16.16538,14.15763 -19.78898,20.24383 -0.82892,1.39226 -1.42982,2.61523 -2.06414,4.20104 -1.11575,2.78933 -1.79298,5.49043 -2.0308,8.09977 -0.0742,0.81386 -0.0857,1.09577 -0.0857,2.09785 0,1.19379 0.0373,1.81331 0.17968,2.98215 0.0575,0.47191 0.0647,0.51741 0.0821,0.51741 0.005,0 0.31235,-0.23542 0.68263,-0.52316 z m 12.31021,-9.82499 c -0.0485,-0.0485 -0.0485,-0.1202 4.4e-4,-0.6821 0.15582,-1.79039 0.40401,-3.20623 0.81692,-4.66034 0.67637,-2.38185 1.71278,-4.50952 3.01115,-6.18163 0.63149,-0.81326 1.48997,-1.66897 2.22986,-2.22266 0.2172,-0.16254 0.6267,-0.44207 0.70932,-0.4842 0.1969,-0.10038 0.40075,0.0362 0.40075,0.26852 0,0.0518 -0.01,0.11614 -0.0223,0.14304 -0.0123,0.0269 -0.14984,0.14768 -0.30574,0.26838 -2.16558,1.6767 -3.73752,3.83543 -4.79831,6.58951 -0.33814,0.87788 -0.66186,1.94448 -0.97935,3.22674 -0.24942,1.00734 -0.649,2.82069 -0.78301,3.55338 -0.0306,0.16701 -0.0705,0.21899 -0.16822,0.21899 -0.0488,0 -0.0867,-0.0128 -0.11152,-0.0376 z m 0.0628,-7.44944 c -0.11892,-0.0725 -0.1146,-0.159 0.0234,-0.46685 0.46512,-1.03802 0.95402,-1.91128 1.78283,-3.18445 0.43386,-0.66646 0.62866,-0.90624 0.86224,-1.06131 0.1257,-0.0835 0.19909,-0.0996 0.27495,-0.0603 0.0924,0.0478 0.10901,0.13011 0.0629,0.31236 -0.0594,0.23489 -0.17077,0.43794 -0.55737,1.01624 -0.19716,0.29493 -0.57382,0.87489 -0.83701,1.28882 -0.77671,1.22155 -1.35317,2.10427 -1.40378,2.14959 -0.0579,0.0519 -0.12947,0.0539 -0.20813,0.006 z m 43.02529,15.41179 c 0.10105,-0.11309 0.15646,-0.68683 0.11228,-1.16261 -0.11662,-1.25582 -0.44387,-2.87979 -0.84133,-4.17507 -0.13822,-0.45045 -0.21149,-0.62333 -0.57003,-1.34499 -0.32652,-0.65722 -0.35921,-0.70439 -0.43536,-0.62824 l -0.0391,0.0391 0.0573,0.23327 c 0.0315,0.1283 0.0954,0.45341 0.14188,0.72246 0.10897,0.63051 0.13363,0.74784 0.28072,1.33585 0.28038,1.12089 0.50545,2.31398 0.67083,3.556 0.0317,0.23801 0.0704,0.50894 0.0859,0.60207 0.0508,0.30372 0.16863,0.70118 0.24315,0.82012 0.0571,0.0911 0.21315,0.0922 0.29373,0.002 z m -23.92957,-0.59463 c 5.28503,-2.23685 11.43875,-4.60149 17.29328,-6.64515 0.48534,-0.16942 0.88548,-0.31108 0.88921,-0.31481 0.004,-0.004 -0.0477,-0.20495 -0.11421,-0.44716 -0.50163,-1.82592 -1.09975,-3.40963 -1.8946,-5.01656 l -0.26266,-0.531 -0.0924,0.0364 c -4.70049,1.85277 -10.40419,4.29598 -15.09934,6.46791 -1.32625,0.61351 -1.40568,0.65156 -1.41594,0.6783 -0.005,0.0143 0.0168,0.5396 0.0495,1.16724 0.0871,1.67054 0.14085,2.94876 0.18317,4.35381 0.007,0.23542 0.0203,0.42803 0.0293,0.42803 0.009,0 0.20464,-0.0797 0.43468,-0.17702 z m -7.26774,-0.32524 c 0.23888,-0.0799 0.39526,-0.29589 0.39526,-0.546 0,-0.17106 -0.0411,-0.28526 -0.14373,-0.39942 -0.11233,-0.12494 -0.23814,-0.18311 -0.44307,-0.20486 -0.18148,-0.0193 -0.2656,-0.009 -0.39252,0.0474 -0.1291,0.0575 -0.21825,0.14668 -0.28382,0.28406 -0.0487,0.10202 -0.059,0.14623 -0.0583,0.25105 0.001,0.21051 0.0667,0.35215 0.22092,0.47851 0.13537,0.11092 0.24822,0.14325 0.45126,0.12928 0.0931,-0.006 0.20735,-0.0244 0.254,-0.04 z m -2.86025,-1.87753 c 0.17451,-0.0902 0.19011,-0.3299 0.0407,-0.6254 -0.1457,-0.28818 -0.49026,-0.74979 -0.80242,-1.07502 -0.23624,-0.24612 -0.32221,-0.30364 -0.45386,-0.30364 -0.0851,0 -0.10952,0.009 -0.16792,0.06 -0.0797,0.07 -0.10519,0.12663 -0.10535,0.23425 -1.5e-4,0.10254 0.0345,0.16408 0.16286,0.28902 0.2629,0.25596 0.5186,0.60208 0.7341,0.99373 0.13246,0.24071 0.24102,0.38915 0.31445,0.42991 0.0587,0.0326 0.21192,0.031 0.27744,-0.003 z m 2.70575,-0.0958 c 0.1521,-0.0758 0.23932,-0.20212 0.32375,-0.46891 0.0574,-0.18144 0.0712,-0.50543 0.0312,-0.73487 -0.0767,-0.43981 -0.31646,-0.95921 -0.65125,-1.41052 -0.4505,-0.6073 -1.24644,-1.19222 -1.91721,-1.40893 -0.33322,-0.10765 -0.49711,-0.13262 -0.86797,-0.13224 -0.36892,3.8e-4 -0.55094,0.0301 -0.89771,0.14667 -0.23721,0.0797 -0.33401,0.1332 -0.40824,0.22553 -0.053,0.0659 -0.0581,0.0844 -0.0581,0.20857 0,0.11818 0.007,0.14623 0.052,0.21131 0.0889,0.12834 0.17065,0.16027 0.45453,0.17765 0.53901,0.033 1.30738,0.30555 1.82686,0.64802 0.20843,0.13741 0.59838,0.52182 0.74105,0.73051 0.12945,0.18935 0.26865,0.46273 0.3138,0.61627 0.13895,0.47253 0.33519,0.95287 0.43868,1.07378 0.14224,0.16617 0.41619,0.21805 0.61865,0.11716 z m 3.54132,-2.7035 c 0.28457,-0.13949 0.68462,-0.33448 0.889,-0.43331 0.32487,-0.15711 0.37159,-0.1852 0.37159,-0.22345 -2e-5,-0.18589 -0.17146,-3.00053 -0.27256,-4.47465 -0.10685,-1.55792 -0.10986,-1.59753 -0.12286,-1.61857 -0.012,-0.0195 -0.47723,0.224 -1.84354,0.965 -1.44113,0.78157 -2.73574,1.50379 -4.36183,2.43331 l -0.45776,0.26167 0.10968,0.004 c 0.68419,0.0275 1.20813,0.11192 1.68648,0.27185 1.2255,0.40974 2.28581,1.30969 2.97621,2.52607 0.11184,0.19704 0.24254,0.45967 0.29313,0.58902 l 0.0165,0.0423 0.0992,-0.045 c 0.0546,-0.0248 0.33208,-0.15915 0.61666,-0.29864 z m 3.89133,-1.8599 c 4.11495,-1.92789 8.38994,-3.80751 12.71217,-5.58926 0.92134,-0.3798 2.55769,-1.04526 2.74214,-1.11515 l 0.0887,-0.0336 -0.0301,-0.0589 c -0.0909,-0.17778 -0.54475,-0.91089 -0.81674,-1.31945 -0.73967,-1.11104 -1.42284,-1.96595 -2.35289,-2.94441 -0.27755,-0.29199 -0.95212,-0.94145 -0.99255,-0.95561 -0.0174,-0.006 -1.34853,0.60685 -2.73956,1.26148 -3.05415,1.43731 -6.1087,2.94722 -9.09697,4.49678 -0.4191,0.21732 -0.76376,0.39647 -0.76591,0.39811 -0.002,0.002 0.0208,0.27779 0.0509,0.61368 0.0815,0.90871 0.1987,2.31865 0.26339,3.16953 0.0315,0.41392 0.0652,0.82032 0.075,0.90311 0.034,0.28831 0.11214,1.30029 0.113,1.46285 1.6e-4,0.0285 0.005,0.0517 0.0111,0.0517 0.006,0 0.33824,-0.15342 0.73848,-0.34094 z m -13.04474,-0.93908 c 0.14488,-0.0106 0.64198,-0.0616 1.10467,-0.11339 l 0.84126,-0.0941 0.83392,-0.48569 c 2.14766,-1.25085 4.51507,-2.57923 6.4206,-3.60266 l 0.75259,-0.40421 -0.005,-0.20378 c -0.007,-0.31264 -0.19762,-2.65543 -0.22652,-2.78547 l -0.0134,-0.0605 -0.39511,0.2272 c -4.29306,2.46861 -7.74349,4.57154 -11.6174,7.08045 l -0.19681,0.12746 0.0654,0.0335 c 0.20699,0.10619 0.75349,0.24158 1.12786,0.27942 0.23022,0.0233 0.99942,0.0243 1.30763,0.002 z m -2.77151,-0.87744 c 3.72341,-2.43619 8.08595,-5.11996 11.66151,-7.17399 0.34667,-0.19915 0.66051,-0.38148 0.69743,-0.40517 l 0.0671,-0.0431 -0.0347,-0.37359 c -0.12152,-1.30694 -0.64606,-6.28801 -0.66412,-6.30652 -0.0115,-0.0118 -0.51731,0.14956 -0.84998,0.2712 -1.98205,0.72472 -3.89711,1.87638 -5.59395,3.36401 -0.31543,0.27654 -1.17744,1.14327 -1.45838,1.46637 -0.50041,0.5755 -0.8936,1.08594 -1.29528,1.68152 -1.41276,2.09476 -2.32515,4.45202 -2.77673,7.17403 -0.0734,0.44223 -0.0863,0.54595 -0.068,0.54595 0.005,0 0.14642,-0.0903 0.31515,-0.20072 z m 43.6467,-1.44303 c 8.92181,-2.77251 18.17081,-5.24329 27.83535,-7.43595 0.56979,-0.12927 1.04374,-0.23731 1.05322,-0.24008 0.009,-0.003 -0.0371,-0.0247 -0.10348,-0.0488 -0.39084,-0.14168 -0.75257,-0.37654 -1.07212,-0.69609 -0.43696,-0.43696 -0.71076,-0.94732 -0.84857,-1.58169 -0.0384,-0.17671 -0.0429,-0.2482 -0.0429,-0.67734 -3e-5,-0.5101 0.012,-0.61828 0.11339,-1.02061 0.28263,-1.12147 1.10688,-2.20819 2.33159,-3.07404 0.72736,-0.51423 1.55545,-0.84887 2.54941,-1.03026 0.78603,-0.14345 1.68378,-0.14323 2.38948,5.8e-4 0.61002,0.12431 1.18707,0.39483 1.55464,0.7288 l 0.1153,0.10477 0.0115,-0.45577 c 0.006,-0.25067 0.0169,-0.97394 0.0235,-1.60727 l 0.0119,-1.15151 -0.32692,0.0849 c -13.16058,3.41892 -24.58616,6.88787 -35.83046,10.87858 -1.56353,0.55491 -4.10396,1.47675 -4.1235,1.49629 -0.005,0.005 0.11328,0.17268 0.26255,0.37292 1.22606,1.64474 2.17688,3.30472 2.95662,5.16185 0.0956,0.22766 0.17937,0.42933 0.18619,0.44815 0.008,0.0217 0.0244,0.0306 0.0454,0.0243 0.0182,-0.005 0.42672,-0.13225 0.90791,-0.28178 z m 7.4426,-8.73397 c -0.0392,-0.0392 -0.0375,-0.10814 0.003,-0.14388 0.14019,-0.12248 1.64936,-0.83195 2.61821,-1.23083 1.24277,-0.51166 3.46451,-1.26325 4.4985,-1.5218 0.51508,-0.12879 1.03589,-0.21599 1.29004,-0.21599 0.11661,0 0.17059,0.0441 0.15074,0.12321 -0.0103,0.0408 -0.0492,0.0668 -0.2233,0.14902 -0.41185,0.1944 -0.75045,0.31421 -1.76311,0.62384 -1.55828,0.47646 -2.70102,0.8704 -5.52982,1.90632 -0.51017,0.18682 -0.94726,0.33968 -0.97132,0.33968 -0.0241,0 -0.057,-0.0133 -0.0733,-0.0296 z m 2.64214,-0.23384 c -0.0428,-0.0428 -0.0503,-0.14527 -0.0141,-0.19346 0.0269,-0.0359 0.57148,-0.30173 1.09596,-0.53504 0.43975,-0.19562 1.13495,-0.47264 1.56163,-0.62227 0.50958,-0.17871 1.54036,-0.48939 1.85326,-0.55857 0.16614,-0.0367 0.49075,-0.0583 0.59174,-0.0394 0.0995,0.0187 0.16087,0.0853 0.16078,0.1746 -1.1e-4,0.11801 -0.0527,0.17835 -0.23772,0.27302 -0.21155,0.10822 -0.32736,0.14729 -0.7688,0.25935 -0.69654,0.17682 -1.97949,0.56809 -3.24262,0.98891 -0.47958,0.15978 -0.89233,0.2905 -0.91723,0.2905 -0.0249,0 -0.0622,-0.0169 -0.0829,-0.0376 z m 15.4714,-0.16857 c -0.1579,-0.0963 -0.15838,-0.3218 -9.4e-4,-0.43975 0.0863,-0.0647 0.13381,-0.0747 0.2056,-0.0435 0.21136,0.0919 0.26001,0.32078 0.0984,0.46271 -0.0531,0.0467 -0.0819,0.0574 -0.15407,0.0573 -0.0548,-4e-5 -0.11177,-0.0141 -0.14895,-0.0368 z m -0.51155,-0.79842 c -0.083,-0.046 -0.0948,-0.0952 -0.0951,-0.39708 -6.2e-4,-0.54097 0.10884,-1.05309 0.3595,-1.68192 0.36312,-0.91096 0.87978,-1.71436 1.50166,-2.33504 0.43248,-0.43165 0.59117,-0.53938 0.67833,-0.4605 0.0705,0.0638 0.0481,0.12553 -0.11265,0.30998 -0.52973,0.60787 -0.99075,1.29844 -1.30003,1.94733 -0.28395,0.59574 -0.4164,0.98445 -0.63079,1.8511 -0.088,0.35582 -0.17244,0.67095 -0.18762,0.70029 -0.0463,0.0895 -0.12608,0.11416 -0.21327,0.0658 z m -52.89052,5.92993 c 3.28729,-1.70715 7.7609,-3.90329 10.59805,-5.2027 0.0805,-0.0369 0.14403,-0.0734 0.14111,-0.0811 -0.0182,-0.048 -0.9111,-0.72175 -1.35056,-1.01899 -0.50154,-0.33922 -1.17883,-0.74789 -1.61129,-0.97221 l -0.15313,-0.0794 -0.82524,0.42664 c -2.57993,1.33379 -5.00249,2.63393 -7.57975,4.0679 -0.45532,0.25334 -0.82907,0.46164 -0.83057,0.4629 -0.002,0.001 0.021,0.23089 0.0499,0.51029 0.029,0.2794 0.0962,0.96096 0.1494,1.51459 0.0532,0.55362 0.10009,1.01651 0.10415,1.02864 0.005,0.0137 0.11296,-0.0334 0.28605,-0.12425 0.15327,-0.0805 0.61311,-0.32 1.02186,-0.53227 z m 23.622,-2.59592 c 4.88392,-1.8323 11.27255,-4.02974 17.10267,-5.88265 7.01196,-2.22852 14.96417,-4.5186 22.32378,-6.42882 0.38805,-0.10072 0.71115,-0.18831 0.71799,-0.19464 0.007,-0.006 0.0261,-1.0402 0.0428,-2.2975 0.0167,-1.2573 0.0383,-2.794 0.0481,-3.41489 0.01,-0.62089 0.0236,-1.50403 0.0307,-1.96253 l 0.0129,-0.83365 -0.0547,0.0132 c -0.12107,0.0292 -3.323,0.94695 -4.32562,1.23978 -2.8045,0.8191 -5.51536,1.63862 -8.16563,2.46856 -0.5795,0.18147 -1.0875,0.33997 -1.12889,0.35221 l -0.0753,0.0223 -0.0121,0.71416 c -0.007,0.39279 -0.0176,0.77766 -0.0242,0.85527 -0.10515,1.22584 -0.93875,2.51228 -2.2824,3.52227 -0.98953,0.74381 -2.06615,1.15977 -3.42932,1.32494 -0.37605,0.0456 -1.13643,0.0455 -1.47678,-1.8e-4 -0.30414,-0.0408 -0.6119,-0.10811 -0.84069,-0.1839 -1.14678,-0.37984 -1.94053,-1.3894 -2.06847,-2.63084 -0.0128,-0.12434 -0.0316,-0.22607 -0.0418,-0.22607 -0.0581,0 -4.45827,1.55982 -6.04255,2.14201 l -0.15052,0.0553 -0.0114,0.28893 c -0.0233,0.59091 -0.13588,1.01102 -0.42258,1.57774 -0.25537,0.50479 -0.56201,0.9247 -1.01474,1.38958 -1.14378,1.17448 -2.47938,1.83907 -4.14866,2.06435 -0.35855,0.0484 -1.19436,0.0583 -1.54282,0.0182 -0.78169,-0.0898 -1.35137,-0.30353 -1.83444,-0.68822 -0.24877,-0.19811 -0.54903,-0.54021 -0.69013,-0.78631 -0.0316,-0.0551 -0.0673,-0.10399 -0.0793,-0.10861 -0.0653,-0.0251 -6.66244,2.72216 -6.62156,2.75741 0.009,0.007 0.11721,0.0841 0.24139,0.17041 1.75998,1.22353 3.56098,2.86238 5.03137,4.5784 0.14058,0.16406 0.2586,0.30644 0.26228,0.3164 0.004,0.01 0.0206,0.0125 0.0376,0.006 0.017,-0.007 0.30187,-0.11407 0.63301,-0.23831 z m 3.41489,-4.57997 c -0.58272,-0.0784 -1.37239,-0.34986 -1.93993,-0.66699 -0.39734,-0.22202 -0.91213,-0.59493 -1.14974,-0.83287 -0.11308,-0.11324 -0.3748,-0.48666 -0.39901,-0.5693 -0.007,-0.0253 0.003,-0.0573 0.0278,-0.0894 0.069,-0.0877 0.12777,-0.0704 0.42334,0.12406 0.14544,0.0957 0.31521,0.21344 0.37728,0.26162 0.36931,0.28674 1.01614,0.64145 1.48435,0.81399 0.4497,0.16572 0.96672,0.27635 1.76859,0.37843 0.20696,0.0264 0.40242,0.0562 0.43434,0.0664 0.20186,0.0644 0.26962,0.39186 0.0993,0.47994 -0.0284,0.0147 -0.10933,0.0351 -0.17978,0.0452 -0.18243,0.0264 -0.71394,0.0201 -0.94653,-0.0112 z m 2.01858,-0.15119 c -0.0673,-0.0145 -0.15101,-0.10659 -0.17381,-0.19128 -0.0372,-0.13812 0.0256,-0.28597 0.14205,-0.33464 0.19007,-0.0794 0.38371,0.0498 0.38371,0.25599 0,0.18691 -0.16165,0.31089 -0.35195,0.26993 z m 13.9552,-4.76913 c -0.20525,-0.0209 -0.63579,-0.0993 -0.86695,-0.15785 -0.75141,-0.19042 -1.47808,-0.60244 -2.07557,-1.17683 -0.21487,-0.20657 -0.25511,-0.26872 -0.21839,-0.33733 0.0536,-0.10016 0.13065,-0.0865 0.30854,0.0546 0.63561,0.5042 1.63754,0.90334 2.57656,1.02644 0.318,0.0417 0.84979,0.0379 1.24477,-0.009 0.43575,-0.0517 0.81664,-0.0685 0.87263,-0.0385 0.0657,0.0352 0.10303,0.1403 0.0774,0.2179 -0.0518,0.15706 -0.54956,0.36528 -1.00649,0.42106 -0.19417,0.0237 -0.67726,0.0234 -0.91252,-5e-4 z m 3.14989,-0.55006 c -0.21357,-0.0968 -0.22913,-0.44488 -0.0253,-0.5649 0.0831,-0.0489 0.23497,-0.0494 0.31923,-9.7e-4 0.0952,0.0547 0.15424,0.17931 0.14468,0.30543 -0.008,0.10499 -0.0451,0.17169 -0.1317,0.23633 -0.0633,0.0473 -0.22742,0.0602 -0.30695,0.0241 z m 16.32944,-3.50024 -0.0525,-0.0452 -0.007,-0.40166 c -0.004,-0.23439 0.006,-0.6132 0.0231,-0.90965 0.0396,-0.66903 0.0791,-1.60066 0.11436,-2.69993 0.0411,-1.27844 0.0685,-1.65588 0.12521,-1.72425 0.0273,-0.0329 0.17492,-0.0332 0.20218,-3.6e-4 0.0251,0.0302 0.0525,0.23215 0.0682,0.50165 0.0142,0.24446 -0.0184,1.87096 -0.0568,2.83163 -0.0695,1.73846 -0.0966,2.08182 -0.19012,2.4038 -0.0102,0.0351 -0.0988,0.0892 -0.14609,0.0892 -0.0155,0 -0.0517,-0.0203 -0.0807,-0.0452 z m -63.46283,12.61626 c 2.44845,-1.37232 4.80198,-2.64778 7.15821,-3.87929 0.34407,-0.17984 0.62557,-0.33157 0.62555,-0.33719 -5e-5,-0.0152 -0.68333,-0.30395 -1.00655,-0.4253 -2.50046,-0.93872 -5.08313,-1.2854 -7.82697,-1.05062 -0.19662,0.0168 -0.35974,0.0326 -0.36249,0.0351 -0.003,0.002 0.042,0.3931 0.0995,0.86808 0.1477,1.22093 0.32729,2.77948 0.45941,3.98687 0.12547,1.14667 0.13128,1.19474 0.14426,1.19474 0.005,0 0.3241,-0.17656 0.70911,-0.39235 z m 59.5164,-1.2362 c 0.16297,-0.0776 0.27823,-0.22008 0.3034,-0.37515 0.0315,-0.19435 -0.0682,-0.37132 -0.43185,-0.7662 -0.3043,-0.33044 -0.37054,-0.41956 -0.47308,-0.63649 -0.24931,-0.52743 -0.25501,-1.06062 -0.0175,-1.63588 0.0812,-0.19667 0.15895,-0.32659 0.32353,-0.54063 0.0698,-0.0908 0.16721,-0.22191 0.21648,-0.29144 0.0493,-0.0695 0.14773,-0.19041 0.21878,-0.26864 0.0711,-0.0782 0.13907,-0.17218 0.15115,-0.20878 0.0634,-0.19212 -0.10805,-0.4216 -0.31498,-0.42156 -0.0923,2e-5 -0.38088,0.0794 -0.5491,0.15094 -0.29654,0.12619 -0.47631,0.26631 -0.69355,0.54056 -0.43779,0.55268 -0.62461,1.00698 -0.68525,1.6663 -0.0479,0.52123 0.0529,1.03763 0.3074,1.57405 0.43884,0.92504 1.14895,1.44877 1.64454,1.21292 z m 2.18449,-0.73262 c 0.11996,-0.0356 0.25537,-0.1533 0.3222,-0.27999 0.0459,-0.087 0.0509,-0.1156 0.0509,-0.29395 0,-0.17836 -0.005,-0.20692 -0.0509,-0.29395 -0.0651,-0.12339 -0.19886,-0.24098 -0.31985,-0.28117 -0.13335,-0.0443 -0.35217,-0.0303 -0.47341,0.0302 -0.2378,0.11876 -0.35708,0.40182 -0.29512,0.70031 0.0394,0.18989 0.2058,0.37449 0.3841,0.42616 0.0927,0.0269 0.27836,0.0232 0.38208,-0.008 z m -1.57785,-1.23294 c 0.0973,-0.0593 0.12122,-0.13908 0.0979,-0.32656 -0.0135,-0.10862 -0.0134,-0.20225 2.8e-4,-0.30523 0.0255,-0.19155 0.12024,-0.52628 0.19654,-0.69417 0.0657,-0.14454 0.23789,-0.42407 0.33993,-0.5518 0.0836,-0.10462 0.0912,-0.22344 0.0189,-0.29573 -0.0561,-0.0561 -0.18624,-0.0631 -0.27931,-0.0151 -0.2231,0.11507 -0.4668,0.35785 -0.60028,0.59801 -0.16574,0.29818 -0.22113,0.51279 -0.22161,0.85855 -4.9e-4,0.3569 0.0578,0.62742 0.15476,0.71798 0.0704,0.0658 0.19806,0.0719 0.2929,0.0141 z m -42.12179,-1.35565 c 1.68096,-0.73609 4.35833,-1.86416 6.38357,-2.68962 0.32734,-0.13342 0.33535,-0.138 0.32484,-0.18571 -0.13356,-0.60647 -0.12549,-1.18429 0.0251,-1.79979 0.1877,-0.76702 0.61983,-1.52175 1.25191,-2.18651 0.41202,-0.43332 1.0331,-0.92886 1.49157,-1.19006 0.0957,-0.0545 0.17397,-0.10191 0.17397,-0.10533 0,-0.01 -0.017,-0.002 -1.16365,0.49021 -3.69448,1.58733 -7.19447,3.17108 -10.49213,4.7477 -0.93266,0.44591 -2.23374,1.07464 -2.24299,1.08389 -0.003,0.003 0.14466,0.0677 0.32843,0.14357 1.08959,0.44961 2.35063,1.10136 3.36231,1.73774 0.0926,0.0582 0.1777,0.10589 0.18915,0.10589 0.0114,0 0.177,-0.0684 0.36789,-0.15198 z m 10.41624,-2.28445 c 0.20532,-0.061 0.34953,-0.26322 0.34953,-0.4902 0,-0.17214 -0.0497,-0.26339 -0.26439,-0.48515 -0.32995,-0.34086 -0.46917,-0.59564 -0.562,-1.02851 -0.0403,-0.18769 -0.0387,-0.56674 0.003,-0.74319 0.0481,-0.20363 0.21428,-0.68241 0.28404,-0.81844 0.071,-0.13848 0.13897,-0.34206 0.13933,-0.41741 3.6e-4,-0.0737 -0.0302,-0.14217 -0.087,-0.1948 -0.0585,-0.0543 -0.15988,-0.0606 -0.32948,-0.0207 -0.1349,0.0318 -0.23675,0.0924 -0.39959,0.23787 -0.2805,0.25063 -0.40422,0.44448 -0.52795,0.82722 -0.0867,0.26829 -0.12395,0.48157 -0.1368,0.78398 -0.0412,0.97092 0.4338,1.96451 1.09975,2.30016 0.15401,0.0776 0.2854,0.0926 0.43158,0.0492 z m 1.93468,-0.40218 c 0.17888,-0.0817 0.26973,-0.23693 0.28604,-0.48876 0.0121,-0.18699 -0.0163,-0.27938 -0.12326,-0.40124 -0.18735,-0.21338 -0.56962,-0.19572 -0.74536,0.0344 -0.0911,0.11936 -0.11081,0.19315 -0.0991,0.37169 0.0161,0.2451 0.11041,0.40445 0.28574,0.48253 0.103,0.0459 0.29704,0.0465 0.39596,10e-4 z m -1.43934,-1.30065 c 0.0335,-0.0335 0.0376,-0.0628 0.0377,-0.26811 7e-5,-0.12676 0.0121,-0.31091 0.0268,-0.40922 0.0147,-0.0983 0.0366,-0.28034 0.0486,-0.40452 0.0121,-0.12418 0.0339,-0.29351 0.0486,-0.37629 0.0146,-0.0828 0.032,-0.24492 0.0387,-0.36029 0.012,-0.20806 0.0117,-0.21016 -0.0369,-0.2587 -0.0661,-0.0661 -0.18358,-0.0682 -0.24739,-0.004 -0.10052,0.10052 -0.20069,0.3814 -0.24245,0.67986 -0.0562,0.40128 -0.0567,0.48342 -0.005,0.83726 0.0618,0.42633 0.0834,0.52306 0.12677,0.56643 0.0479,0.0479 0.15609,0.0469 0.20497,-0.002 z m 7.30956,-3.26386 c 1.30344,-0.47538 2.77687,-1.00282 3.98764,-1.42743 l 0.82674,-0.28993 0.0601,-0.23283 c 0.25609,-0.99179 0.87308,-1.90033 1.83298,-2.69914 0.76922,-0.64013 1.52559,-1.03395 2.46846,-1.28527 0.99629,-0.26555 2.08836,-0.31107 2.98855,-0.12457 0.60529,0.1254 1.19615,0.40835 1.54681,0.74073 0.0595,0.0564 0.10833,0.0991 0.10852,0.095 0.006,-0.1361 0.0533,-4.22176 0.0489,-4.22614 -0.004,-0.004 -0.0647,0.0145 -0.13602,0.04 -0.0713,0.0255 -0.5487,0.18999 -1.06093,0.36542 -3.83418,1.31316 -7.46679,2.63593 -11.39237,4.14838 -0.84772,0.32661 -2.17312,0.84392 -2.56352,1.00056 l -0.17404,0.0698 v 2.17923 2.17923 l 0.15522,-0.0573 c 0.0854,-0.0315 0.67169,-0.24561 1.30293,-0.47583 z m 9.99064,0.40206 c 0.10107,-0.0255 0.2225,-0.12621 0.27787,-0.23055 0.0583,-0.10993 0.0589,-0.34623 0.001,-0.45424 -0.0864,-0.16136 -0.22397,-0.2413 -0.41389,-0.24045 -0.21002,9.4e-4 -0.37177,0.11921 -0.43001,0.31442 -0.0352,0.11797 -0.0349,0.18654 0.001,0.30858 0.0716,0.24112 0.30636,0.36701 0.56361,0.30224 z m -1.54671,-0.3745 c 0.21608,-0.0808 0.35672,-0.27024 0.35552,-0.47874 -10e-4,-0.20237 -0.0347,-0.29255 -0.20615,-0.55422 -0.13022,-0.19875 -0.23128,-0.41655 -0.28888,-0.62259 -0.0398,-0.14234 -0.0446,-0.19717 -0.0435,-0.49859 0.001,-0.28681 0.007,-0.36122 0.0419,-0.48596 0.0808,-0.29231 0.21918,-0.54806 0.43304,-0.80047 0.23213,-0.27395 0.529,-0.56176 0.70087,-0.67947 0.17104,-0.11716 0.22521,-0.19344 0.22422,-0.31578 -6.7e-4,-0.0834 -0.0676,-0.20731 -0.1349,-0.24976 -0.0532,-0.0335 -0.081,-0.0376 -0.19158,-0.0283 -0.38337,0.0326 -0.82478,0.18578 -1.13125,0.39263 -0.37483,0.25299 -0.73378,0.74815 -0.93717,1.29281 -0.27209,0.7286 -0.19154,1.69442 0.20353,2.44047 0.26582,0.50195 0.62493,0.71866 0.97431,0.58793 z m -10.95743,-2.10777 c 0.01,-0.72877 0.0165,-1.32669 0.0145,-1.32872 -0.004,-0.004 -0.81413,0.32194 -2.09177,0.84294 -1.11819,0.45598 -2.92635,1.20704 -2.92036,1.21303 0.002,0.002 0.0932,-0.0208 0.20176,-0.0515 1.07447,-0.30389 2.18392,-0.3592 3.14306,-0.15669 0.58485,0.12348 1.11338,0.3719 1.4939,0.70215 0.072,0.0625 0.13317,0.11144 0.13588,0.10873 0.003,-0.003 0.0131,-0.60118 0.0231,-1.32995 z m 12.1647,-0.11352 c 0.4128,-0.40733 0.57575,-0.55007 0.7962,-0.69742 0.0799,-0.0534 0.18767,-0.13239 0.23941,-0.17545 0.0517,-0.0431 0.13613,-0.10999 0.18752,-0.14873 0.11895,-0.0897 0.16028,-0.15302 0.16043,-0.24589 3.1e-4,-0.1828 -0.1575,-0.21096 -0.47862,-0.0854 -0.10653,0.0417 -0.24347,0.11044 -0.30432,0.15287 -0.31305,0.21827 -0.72524,0.61629 -0.87881,0.84858 -0.16971,0.25673 -0.32593,0.60434 -0.30345,0.6752 0.0168,0.0528 0.11865,0.0943 0.16745,0.0682 0.0204,-0.0109 0.20679,-0.18729 0.41419,-0.39194 z m -10.2595,-2.84161 c 4.54433,-1.7933 9.28842,-3.54661 13.46823,-4.97758 0.34666,-0.11868 0.71919,-0.24705 0.82785,-0.28525 l 0.19755,-0.0695 0.0211,-1.61799 c 0.0116,-0.88989 0.0271,-1.97264 0.0344,-2.4061 0.012,-0.70971 0.0104,-0.78699 -0.016,-0.77685 -0.0161,0.006 -3.48392,1.10537 -7.70617,2.44261 l -7.67683,2.43135 v 2.47705 c 0,2.1256 0.009,3.10395 0.0297,3.10395 0.003,0 0.37179,-0.14477 0.82019,-0.32172 z m 32.29368,-3.24341 c 0.12261,-0.0719 0.17764,-0.19736 0.17705,-0.40378 -5.7e-4,-0.19725 -0.0202,-0.2867 -0.10202,-0.46369 -0.0853,-0.18457 -0.18397,-0.32993 -0.32718,-0.48188 -0.21917,-0.23255 -0.38137,-0.30521 -0.72232,-0.32357 -0.22003,-0.0118 -0.27614,0.001 -0.32592,0.0774 -0.0369,0.0564 -0.0403,0.18334 -0.006,0.22471 0.0142,0.017 0.0624,0.0538 0.10723,0.0817 0.0448,0.0279 0.096,0.0728 0.11363,0.0997 0.0177,0.0269 0.0911,0.11461 0.1631,0.19482 0.072,0.0802 0.13117,0.15893 0.13141,0.17492 2.5e-4,0.0161 0.0139,0.0268 0.0306,0.0241 0.0403,-0.007 0.1462,0.21135 0.22174,0.45654 0.0319,0.10348 0.0744,0.21306 0.0944,0.2435 0.0931,0.14119 0.29293,0.18413 0.44427,0.0954 z m -71.11218,-3.62102 c 2.14789,-1.87831 4.08118,-3.72851 5.64212,-5.39963 1.44178,-1.54356 2.65061,-3.06152 3.55651,-4.466 1.71571,-2.66 2.8217,-5.60666 3.27816,-8.73392 0.0566,-0.38797 0.0577,-0.40855 0.0581,-1.1383 4.1e-4,-0.77675 -0.0187,-1.21058 -0.0806,-1.82503 -0.15112,-1.50141 -0.49918,-2.80473 -1.05265,-3.9417 -1.05421,-2.16561 -2.86797,-3.64937 -4.87291,-3.98632 -0.31826,-0.0535 -0.51013,-0.068 -0.90284,-0.0681 -0.69133,-2.8e-4 -1.27573,0.0953 -1.97153,0.3225 -1.53785,0.50212 -2.94201,1.52428 -4.03672,2.93854 -0.64431,0.83238 -1.18564,1.83338 -1.58631,2.93329 -0.1491,0.40932 -0.26624,0.93579 -0.37274,1.67521 -0.31321,2.17463 -0.2196,4.62153 0.39527,10.33233 0.41045,3.81217 0.6877,6.15619 1.23305,10.42471 0.0939,0.73472 0.17437,1.34739 0.17888,1.36149 0.0103,0.0322 -0.0327,0.0667 0.53423,-0.42905 z m 4.92983,-6.19118 c -0.0146,-0.0273 -0.014,-0.0493 0.002,-0.08 0.0324,-0.0615 0.43906,-0.55493 1.04268,-1.2653 1.16635,-1.37263 1.60936,-1.92955 2.12522,-2.6717 0.6113,-0.87947 1.0699,-1.65596 1.53348,-2.59645 0.70377,-1.42779 1.19012,-2.84864 1.47481,-4.30859 0.46436,-2.3814 0.29132,-4.89455 -0.52314,-7.59776 -0.068,-0.22577 -0.12369,-0.43808 -0.12369,-0.47179 0,-0.10837 0.12512,-0.18194 0.24083,-0.14161 0.0439,0.0153 0.081,0.06 0.15989,0.19265 0.93359,1.5693 1.38707,3.6051 1.29368,5.80777 -0.11756,2.77254 -0.9214,5.30804 -2.53334,7.99074 -0.84722,1.40999 -1.77689,2.61951 -2.81097,3.6571 -0.53517,0.53699 -0.9398,0.89243 -1.48429,1.30386 -0.2965,0.22403 -0.35908,0.25255 -0.39735,0.18104 z m 3.58285,-6.59959 c -0.0566,-0.0388 -0.0449,-0.0898 0.0742,-0.32266 0.17079,-0.33409 0.50791,-1.04386 0.67773,-1.42686 0.48646,-1.09714 0.90366,-2.35456 1.04669,-3.15471 0.0616,-0.34439 0.12314,-0.56512 0.20443,-0.73281 0.16045,-0.33096 0.32875,-0.40866 0.41279,-0.19056 0.0655,0.16987 0.0631,0.49521 -0.006,0.79023 -0.0393,0.16847 -0.29987,1.03209 -0.40878,1.35466 -0.31644,0.93725 -0.79269,1.99638 -1.21829,2.70934 -0.20557,0.34434 -0.59687,0.92491 -0.64714,0.96011 -0.0424,0.0297 -0.10328,0.0356 -0.13597,0.0133 z m 1.53005,-13.01347 c -0.21996,-0.0785 -0.31877,-0.27885 -0.21859,-0.4432 0.0457,-0.0749 0.0731,-0.0992 0.17084,-0.15127 0.1471,-0.0784 0.34458,-0.0171 0.42309,0.13137 0.10255,0.19393 0.006,0.40888 -0.21068,0.46889 -0.0898,0.0249 -0.0775,0.0253 -0.16466,-0.006 z m 36.62651,22.67932 c 2.00191,-0.45314 2.14003,-0.4876 2.33725,-0.58306 0.20295,-0.0982 0.32634,-0.21251 0.32624,-0.30216 -1e-4,-0.0931 -0.0591,-0.17819 -0.14429,-0.20796 -0.10092,-0.0353 -0.41542,-0.0303 -0.60823,0.01 -0.088,0.0182 -0.73143,0.18564 -1.42993,0.3721 -0.6985,0.18646 -1.47743,0.39412 -1.73096,0.46146 -0.25353,0.0673 -0.47984,0.13443 -0.50291,0.14908 -0.10204,0.0648 -0.12776,0.24622 -0.05,0.35258 0.0395,0.054 0.12902,0.10537 0.18474,0.10603 0.02,2.3e-4 0.74813,-0.16069 1.61808,-0.35761 z m -5.58674,-0.008 c 0.97627,-0.0876 2.00335,-0.26076 3.25383,-0.54868 1.28492,-0.29585 4.35573,-1.10943 5.50447,-1.45834 0.76068,-0.23105 1.27498,-0.49595 1.64749,-0.84856 0.16928,-0.16023 0.21518,-0.22553 0.21518,-0.30608 0,-0.0664 -0.0478,-0.15393 -0.099,-0.18144 -0.13766,-0.0739 -0.70398,-0.11366 -1.04873,-0.0736 -0.4112,0.0478 -0.68328,0.11482 -1.64629,0.40563 -1.37145,0.41414 -2.84396,0.82352 -4.36504,1.21353 -2.17109,0.55667 -3.2301,0.87789 -4.35563,1.32114 -0.33196,0.13073 -0.3677,0.15044 -0.40548,0.22349 -0.0464,0.0898 -0.0351,0.18134 0.0306,0.24707 l 0.0579,0.0579 0.44541,-0.0117 c 0.24498,-0.006 0.58934,-0.0246 0.76526,-0.0404 z m -26.87696,-11.47854 c 0.11212,-0.057 0.17514,-0.16767 0.17624,-0.30947 0.002,-0.24698 -0.18098,-0.39632 -0.42851,-0.34988 -0.13896,0.0261 -0.2545,0.18373 -0.25532,0.3484 -5e-4,0.10237 0.0596,0.23243 0.13095,0.28321 0.10224,0.0728 0.26453,0.0848 0.37664,0.0277 z m 0.68912,-1.89553 c 0.11191,-0.0639 0.64526,-0.82504 0.93892,-1.33989 1.07979,-1.89309 1.55019,-4.30305 1.28786,-6.59804 -0.30031,-2.62738 -1.54813,-5.14605 -3.5264,-7.11795 -0.78194,-0.77942 -1.50572,-1.26511 -2.24731,-1.50803 l -0.19803,-0.0649 -0.0333,0.0433 c -0.0183,0.0238 -0.0335,0.0527 -0.0337,0.0642 -9.4e-4,0.0473 0.40105,0.48649 0.99683,1.0891 0.93586,0.94658 1.44167,1.56051 1.97815,2.40099 1.77961,2.78805 2.35589,6.01453 1.68156,9.41471 -0.20934,1.05556 -0.51917,2.07249 -0.94583,3.10444 -0.14334,0.34669 -0.15087,0.40501 -0.0625,0.48397 0.0636,0.0568 0.10195,0.0634 0.16375,0.0281 z m -0.6268,-7.80676 c 0.26913,-0.0806 0.36726,-0.53739 0.28523,-1.3277 -0.11565,-1.11419 -0.38594,-1.91209 -0.91364,-2.69709 -0.15332,-0.22808 -0.3937,-0.52646 -0.56483,-0.70112 -0.14448,-0.14746 -0.14605,-0.14842 -0.22512,-0.13782 -0.10821,0.0145 -0.17673,0.0839 -0.17586,0.17812 4.9e-4,0.0528 0.0223,0.10131 0.0868,0.19286 0.39376,0.55905 0.76667,1.3948 0.95437,2.13891 0.13265,0.52584 0.1713,0.88207 0.16907,1.5582 -0.002,0.62795 0.0184,0.73006 0.15846,0.79099 0.0748,0.0325 0.12878,0.0336 0.22553,0.005 z m -20.98063,107.77136 c -0.0622,-0.0622 -0.0291,-0.0999 0.59343,-0.67669 2.98285,-2.76362 4.12807,-4.13506 6.31654,-7.56431 0.39164,-0.61367 0.40807,-0.63169 0.55776,-0.61161 0.11972,0.0161 0.20495,0.11202 0.20495,0.23076 0,0.17859 -0.60997,1.27381 -1.20621,2.1658 -1.27325,1.90481 -3.19929,4.03512 -4.86781,5.38405 -0.55606,0.44955 -1.46521,1.09457 -1.54279,1.09457 -0.0183,0 -0.0435,-0.0102 -0.0559,-0.0226 z m 5.46754,-3.70367 c -0.0824,-0.0824 -0.0673,-0.15757 0.0739,-0.36826 0.0616,-0.0919 0.18591,-0.28881 0.27629,-0.43763 0.0904,-0.14882 0.26438,-0.41975 0.38666,-0.60207 0.24873,-0.37084 0.47823,-0.75048 0.75774,-1.25343 0.23204,-0.41754 0.27144,-0.47706 0.35153,-0.53103 0.11772,-0.0793 0.28823,-0.0395 0.37274,0.087 0.0318,0.0477 0.0427,0.091 0.0427,0.17047 0,0.0949 -0.0149,0.13615 -0.13718,0.37822 -0.17606,0.34867 -0.27297,0.50824 -0.65061,1.07131 -0.41218,0.61457 -0.51992,0.75729 -0.79693,1.05567 -0.47503,0.51169 -0.4479,0.48715 -0.53859,0.48715 -0.0651,0 -0.0921,-0.0112 -0.13827,-0.0574 z m -7.7479,-4.80833 c -0.0155,-0.004 -0.32456,-0.0457 -0.68674,-0.093 -0.71798,-0.0937 -0.95,-0.13309 -1.53323,-0.26053 -0.3136,-0.0685 -0.39179,-0.092 -0.41907,-0.12565 -0.0374,-0.0462 -0.0294,-0.10055 0.0229,-0.15512 0.0312,-0.0326 0.0657,-0.0334 0.69889,-0.0159 0.58893,0.0162 1.29933,0.065 1.96825,0.13524 0.20544,0.0216 0.30843,0.0589 0.37238,0.13487 0.0926,0.1101 0.0417,0.30783 -0.094,0.3645 -0.0584,0.0244 -0.25711,0.0338 -0.32945,0.0156 z m 0.56444,-1.49427 c -1.14393,-0.0482 -2.67593,-0.25209 -3.96992,-0.5284 -2.40612,-0.51378 -5.11999,-1.47958 -7.97748,-2.83899 -0.7613,-0.36218 -1.67327,-0.8279 -1.69286,-0.8645 -0.0321,-0.0599 0.007,-0.1326 0.0708,-0.1326 0.0294,0 0.53548,0.18277 1.12465,0.40616 2.78776,1.05701 3.98803,1.48682 5.27408,1.88863 2.3377,0.73039 4.44822,1.18736 6.12648,1.32651 0.48609,0.0403 0.92455,0.0627 1.67452,0.0856 1.5028,0.0459 1.54218,0.048 1.60326,0.0841 0.15787,0.0932 0.17554,0.35468 0.0291,0.43041 -0.19267,0.0996 -1.43264,0.17805 -2.26266,0.14309 z m -29.75648,-6.83778 c -0.0509,-0.0509 -0.0586,-0.10019 -0.0227,-0.14587 0.0563,-0.0716 0.84332,-0.60675 1.40641,-0.95629 0.69815,-0.4334 0.8656,-0.50024 0.95819,-0.38253 0.0234,0.0297 0.039,0.0773 0.039,0.11861 0,0.0769 -0.042,0.1252 -0.22578,0.25959 -0.11051,0.0808 -0.83311,0.50854 -1.17593,0.69608 -0.28537,0.15612 -0.88519,0.45659 -0.91147,0.45659 -0.0119,0 -0.0423,-0.0208 -0.0677,-0.0462 z m -1.17559,-0.19938 c -0.0465,-0.0869 -0.0213,-0.11302 0.34859,-0.36071 0.39896,-0.26715 0.50598,-0.32945 1.32943,-0.77387 1.07333,-0.57929 1.74551,-0.90045 1.93999,-0.92691 0.11144,-0.0152 0.1831,0.0408 0.1831,0.14296 0,0.0632 -0.0111,0.0813 -0.0894,0.14592 -0.17025,0.14055 -0.20541,0.1615 -1.01129,0.60256 -0.10347,0.0566 -0.53104,0.27469 -0.95014,0.48456 -0.75834,0.37976 -1.55606,0.72409 -1.67751,0.72409 -0.0333,0 -0.0596,-0.0139 -0.0728,-0.0386 z m 66.4558,-6.05053 c -0.0214,-0.0273 -0.039,-0.0563 -0.039,-0.0646 0,-0.0487 0.0555,-0.13595 0.19425,-0.30577 1.96632,-2.40566 3.74533,-5.47851 4.87646,-8.42299 1.12581,-2.93066 1.68984,-5.81826 1.92021,-9.83074 0.0365,-0.63522 0.0466,-0.67527 0.18878,-0.74408 0.0663,-0.0321 0.10229,-0.0381 0.169,-0.0281 0.0955,0.0143 0.19811,0.0921 0.23059,0.17471 0.0582,0.14803 0.0947,1.45812 0.0613,2.19672 -0.12868,2.84169 -0.77429,5.79157 -1.8654,8.52326 -1.26348,3.16322 -3.06773,5.97109 -5.33478,8.3023 -0.21193,0.21793 -0.25044,0.24966 -0.30262,0.2493 -0.0419,-2.9e-4 -0.0715,-0.0153 -0.0988,-0.05 z m -66.1788,-2.26629 c -0.052,-0.031 -0.0738,-0.10554 -0.046,-0.15766 0.0453,-0.085 0.72821,-0.70285 1.31775,-1.19231 1.07594,-0.89328 1.89699,-1.50867 2.20295,-1.65112 0.16272,-0.0758 0.2758,-0.0557 0.32298,0.0572 0.0483,0.11561 0.0114,0.18376 -0.22344,0.41309 -0.36638,0.35771 -1.36998,1.12884 -2.43022,1.86732 -0.34926,0.24325 -1.00817,0.66027 -1.06333,0.67296 -0.0257,0.006 -0.062,0.002 -0.0807,-0.009 z m 1.41036,-0.12684 c -0.0328,-0.0362 -0.0388,-0.0743 -0.0196,-0.12442 0.0104,-0.0272 0.346,-0.31877 0.75041,-0.65208 0.25681,-0.21165 0.74619,-0.56939 0.8843,-0.64642 0.0724,-0.0404 0.2167,-0.12591 0.32058,-0.19003 0.35635,-0.21994 0.45684,-0.2542 0.52494,-0.17895 0.0775,0.0857 0.007,0.17239 -0.44989,0.55631 -0.42156,0.35392 -0.70365,0.54859 -1.4297,0.98665 -0.2583,0.15584 -0.4877,0.28335 -0.50979,0.28335 -0.0221,0 -0.0542,-0.0155 -0.0713,-0.0344 z m 71.45558,-5.95591 c -0.0348,-0.0255 -0.0349,-0.0375 -0.002,-0.55974 0.0666,-1.06157 0.13502,-1.49893 0.47395,-3.0296 0.27251,-1.23074 0.49727,-1.96235 0.72003,-2.34378 0.0895,-0.15319 0.11003,-0.17285 0.19523,-0.18668 0.0885,-0.0143 0.17457,0.0581 0.19097,0.16062 0.0146,0.091 -0.0145,0.46071 -0.0542,0.68883 -0.035,0.20132 -0.21286,0.97278 -0.36652,1.58985 -0.0606,0.24318 -0.19641,0.80622 -0.30189,1.25119 -0.20455,0.86294 -0.27118,1.11242 -0.45978,1.72155 -0.0657,0.21214 -0.14133,0.45888 -0.16811,0.54832 -0.0289,0.0966 -0.0608,0.16725 -0.0784,0.17403 -0.0495,0.019 -0.11153,0.0129 -0.14916,-0.0146 z m -69.84774,-6.6225 c -0.0492,-0.0593 -0.11345,-0.82276 -0.12759,-1.51711 -0.0291,-1.42806 0.14026,-2.93535 0.54114,-4.81659 0.81172,-3.80927 2.28055,-7.46258 4.4669,-11.11015 1.1687,-1.9498 2.67597,-4.06759 4.0708,-5.7197 1.15086,-1.36314 3.06157,-3.33953 4.42216,-4.57418 0.60255,-0.54677 1.46317,-1.26782 1.51323,-1.26782 0.0518,0 0.0937,0.0494 0.0813,0.0959 -0.007,0.0249 -0.17086,0.21935 -0.36496,0.43213 -0.19409,0.21277 -0.6967,0.76311 -1.1169,1.22296 -1.8339,2.00694 -2.69882,2.99392 -3.66034,4.17688 -2.19426,2.69961 -3.91898,5.23181 -5.29758,7.77779 -0.27729,0.51211 -0.87367,1.70623 -1.0858,2.17409 -0.9114,2.01015 -1.59906,3.93676 -2.1456,6.01133 -0.38757,1.47116 -0.57775,2.54888 -0.88496,5.01492 -0.22687,1.82117 -0.26277,2.07551 -0.2967,2.10179 -0.0398,0.0308 -0.0885,0.0299 -0.11515,-0.002 z m 89.40967,-9.63006 c -0.0341,-0.0341 -0.0276,-0.12399 0.0103,-0.14379 0.0811,-0.0423 2.73189,-0.6944 4.17218,-1.02634 2.54198,-0.58586 6.23946,-1.35541 10.31993,-2.14789 1.62217,-0.31505 1.83341,-0.3512 2.20478,-0.3773 0.16728,-0.0118 0.18225,-0.01 0.21973,0.0276 0.0525,0.0525 0.0516,0.1383 -0.002,0.19853 -0.0739,0.0829 -0.61052,0.21567 -1.64159,0.40607 -1.69327,0.31268 -4.29376,0.83829 -8.73948,1.76641 -3.20455,0.66901 -6.40085,1.31929 -6.48466,1.31929 -0.0201,0 -0.0467,-0.0102 -0.0591,-0.0226 z m 8.75745,-0.27524 c -0.0382,-0.0422 -0.0402,-0.10439 -0.004,-0.14012 0.0523,-0.0523 0.98249,-0.44231 1.65386,-0.69342 0.91955,-0.34393 2.17376,-0.71153 3.36799,-0.98714 0.94697,-0.21855 1.36532,-0.2898 1.70156,-0.2898 0.14122,0 0.16118,0.005 0.20282,0.0462 0.0568,0.0568 0.06,0.13809 0.008,0.20408 -0.0696,0.0884 -0.43798,0.19841 -1.1781,0.35171 -1.418,0.29369 -2.93866,0.70034 -5.03298,1.34589 -0.35155,0.10836 -0.6501,0.19702 -0.66344,0.19702 -0.0133,0 -0.0383,-0.0155 -0.0554,-0.0344 z m -96.81454,-2.75018 c -0.0238,-0.0238 -0.0376,-0.0627 -0.0376,-0.10601 0,-0.13088 0.34277,-1.09057 0.63078,-1.76606 0.59696,-1.4001 1.52941,-3.0989 2.46305,-4.48734 0.37653,-0.55995 1.16565,-1.66186 1.41624,-1.97762 0.22781,-0.28706 0.6523,-0.7219 0.83307,-0.85339 0.10454,-0.076 0.13121,-0.0873 0.18614,-0.0784 0.12317,0.02 0.20629,0.15437 0.17118,0.27678 -0.0364,0.1269 -0.28341,0.52451 -0.53297,0.85791 -0.0761,0.10166 -0.30282,0.38946 -0.50382,0.63956 -0.43335,0.53918 -0.65008,0.8342 -1.06056,1.44366 -1.07841,1.6012 -1.69432,2.6928 -2.83529,5.02511 -0.2682,0.54826 -0.5012,1.01181 -0.51776,1.03011 -0.0423,0.0467 -0.16389,0.0442 -0.21243,-0.004 z m 109.00153,-27.53411 c -0.13918,-0.0317 -0.22463,-0.0739 -0.37733,-0.18633 -0.33579,-0.24732 -0.57382,-0.59671 -0.66465,-0.97558 -0.0667,-0.27805 -0.0377,-0.78413 0.0498,-0.87167 0.037,-0.037 0.14594,-0.0358 0.17732,0.002 0.018,0.0216 0.0252,0.10434 0.026,0.29633 9.9e-4,0.24898 0.005,0.27701 0.0596,0.43043 0.0924,0.25883 0.2024,0.43583 0.38328,0.61671 0.15895,0.15895 0.18358,0.17525 0.61148,0.40454 0.0724,0.0388 0.14228,0.0838 0.15522,0.10002 0.0362,0.0453 0.028,0.10552 -0.0205,0.1511 -0.0574,0.0539 -0.24064,0.0688 -0.40024,0.0325 z m -38.53031,-1.76019 c -0.0314,-0.0346 -0.033,-0.077 -0.0232,-0.60677 0.006,-0.31324 0.0236,-0.73462 0.0396,-0.93641 0.13189,-1.66842 0.23671,-4.249 0.23706,-5.83623 l 1.9e-4,-0.87853 0.0418,-0.0293 c 0.0557,-0.039 0.11979,-0.037 0.16191,0.005 0.028,0.028 0.0385,0.0881 0.0564,0.32455 0.0858,1.1282 0.11599,1.9138 0.116,3.01832 2e-5,1.19452 -0.0383,1.97864 -0.15122,3.09503 -0.09,0.88963 -0.24458,1.75119 -0.33143,1.84716 -0.0407,0.0449 -0.10503,0.0437 -0.14719,-0.003 z m -38.93929,-1.17807 c -0.0843,-0.035 -0.11988,-0.0976 -0.23142,-0.4065 -0.17589,-0.48718 -0.29321,-0.9471 -0.51806,-2.03107 -0.0716,-0.34511 -0.28702,-1.32173 -0.47875,-2.17028 -0.78001,-3.45224 -1.03941,-4.7043 -1.4228,-6.86741 -0.1577,-0.88978 -0.1606,-0.92077 -0.0912,-0.97347 0.0683,-0.0518 0.1398,-0.0326 0.17604,0.0473 0.0622,0.13714 0.58195,2.06643 0.92114,3.41909 0.31484,1.25553 0.42264,1.71284 0.9491,4.02637 0.24844,1.09173 0.51568,2.24743 0.59387,2.56823 0.23302,0.95601 0.34973,1.58606 0.3786,2.04379 0.0153,0.24249 0.005,0.28906 -0.0731,0.33679 -0.0715,0.0436 -0.11216,0.045 -0.20345,0.007 z m 75.60554,-1.16421 c -0.076,-0.0328 -0.10942,-0.0983 -0.13503,-0.26418 -0.0405,-0.26253 -0.12275,-0.43973 -0.28784,-0.62037 -0.29843,-0.32653 -0.80562,-0.50642 -1.16914,-0.41466 -0.1501,0.0379 -0.21493,0.0278 -0.23096,-0.0361 -0.0208,-0.0831 0.008,-0.11998 0.14835,-0.18899 0.6565,-0.32304 1.50696,0.0293 1.84615,0.76477 0.13543,0.29366 0.1405,0.64072 0.0107,0.73217 -0.07,0.0493 -0.1156,0.0562 -0.18222,0.0274 z m -77.08762,-1.12163 c -0.0504,-0.047 -0.11605,-0.19074 -0.18255,-0.39991 -0.0527,-0.16571 -0.34007,-1.33922 -0.45919,-1.87506 -0.12478,-0.56131 -0.28267,-1.42911 -0.28275,-1.55401 -5e-5,-0.10009 0.11004,-0.15828 0.17553,-0.0928 0.10971,0.1097 0.94156,2.7833 1.06499,3.42287 0.0434,0.22505 0.0493,0.40112 0.0147,0.44493 -0.0781,0.0991 -0.2519,0.12744 -0.33077,0.054 z m 70.46301,-3.54608 c -0.0419,-0.0293 -0.054,-0.0915 -0.0265,-0.13496 0.0297,-0.0468 2.11126,-0.77047 3.14559,-1.09365 2.06045,-0.64378 3.25747,-0.97726 4.10465,-1.1435 l 0.35957,-0.0706 0.0452,0.0525 c 0.049,0.057 0.0455,0.1144 -0.01,0.15766 -0.0741,0.0582 -1.05754,0.35504 -2.31724,0.69956 -1.01587,0.27784 -1.01554,0.27774 -2.11667,0.60555 -1.25091,0.3724 -2.48786,0.74872 -3.11443,0.9475 -0.0158,0.005 -0.0476,-0.004 -0.0705,-0.0201 z m 3.90286,-2.28167 c -0.0462,-0.0511 -0.0402,-0.14706 0.0112,-0.17997 0.0517,-0.0331 0.98586,-0.36302 1.25022,-0.44156 0.10501,-0.0312 0.28895,-0.0709 0.40876,-0.0882 0.20334,-0.0294 0.22103,-0.0294 0.2657,-1.7e-4 0.0706,0.0463 0.0928,0.11917 0.0583,0.19155 -0.0236,0.0495 -0.0605,0.0725 -0.23177,0.14464 -0.11203,0.0472 -0.30529,0.1112 -0.42947,0.14228 -0.25646,0.0642 -1.21895,0.26588 -1.26891,0.26588 -0.0181,0 -0.0469,-0.0155 -0.064,-0.0344 z m -30.73103,-0.80823 c -0.0399,-0.0254 -0.0628,-0.11311 -0.0431,-0.16495 0.0217,-0.0572 0.0647,-0.0773 0.68636,-0.32268 1.33579,-0.52713 4.17222,-1.53838 4.65423,-1.65933 0.29124,-0.0731 0.40052,-0.076 0.46425,-0.0122 0.0488,0.0488 0.0592,0.12005 0.0266,0.18107 -0.0225,0.042 -0.34265,0.20665 -0.59188,0.30434 -0.71295,0.27946 -3.4583,1.20287 -4.56891,1.53676 -0.4893,0.1471 -0.58037,0.16698 -0.6275,0.13701 z"
       id="path1" /></g></svg>
