<?xml version="1.0" encoding="UTF-8" standalone="no"?>
<!-- Created with Inkscape (http://www.inkscape.org/) -->

<svg
   width="159.27916mm"
   height="97.354004mm"
   viewBox="0 0 159.27916 97.354005"
   version="1.1"
   id="svg1"
   xml:space="preserve"
   inkscape:export-filename="programming.svg"
   inkscape:export-xdpi="96"
   inkscape:export-ydpi="96"
   xmlns:inkscape="http://www.inkscape.org/namespaces/inkscape"
   xmlns:sodipodi="http://sodipodi.sourceforge.net/DTD/sodipodi-0.dtd"
   xmlns="http://www.w3.org/2000/svg"
   xmlns:svg="http://www.w3.org/2000/svg"><sodipodi:namedview
     id="namedview1"
     pagecolor="#ffffff"
     bordercolor="#000000"
     borderopacity="0.25"
     inkscape:showpageshadow="2"
     inkscape:pageopacity="0.0"
     inkscape:pagecheckerboard="0"
     inkscape:deskcolor="#d1d1d1"
     inkscape:document-units="mm" /><defs
     id="defs1" /><g
     inkscape:label="Layer 1"
     inkscape:groupmode="layer"
     id="layer1"
     transform="translate(-113.29094,-239.64643)"><path
       style="fill:#c6b067;fill-opacity:1"
       d="m 173.41365,336.73884 c -0.75356,-0.30274 -1.19329,-1.42307 -0.97485,-2.48369 0.0922,-0.44767 3.36262,-14.68472 7.2676,-31.63789 3.90498,-16.95318 8.65882,-37.61052 10.56408,-45.90521 1.90527,-8.29469 3.59719,-15.41322 3.75983,-15.81896 0.16264,-0.40575 0.50967,-0.85223 0.77119,-0.99219 0.27584,-0.14763 4.01304,-0.25447 8.90067,-0.25447 9.20071,0 9.3922,0.03 9.71841,1.52168 0.10443,0.47755 -1.78992,9.17643 -5.51688,25.33352 -3.12176,13.53344 -7.76958,33.71453 -10.3285,44.84688 -5.61789,24.44011 -5.40054,23.51621 -5.73383,24.37349 -0.14824,0.3813 -0.56474,0.82779 -0.92555,0.99218 -0.80339,0.36605 -16.59702,0.3883 -17.50217,0.0247 z m 7.55958,-9.84606 c 2.33865,-10.11275 6.15137,-26.64629 12.21813,-52.98281 3.21807,-13.97 5.91752,-25.66789 5.99878,-25.99531 0.14569,-0.58702 0.20795,-0.59532 4.46686,-0.59532 4.74506,0 4.3412,0.14655 4.73962,-1.71979 0.0932,-0.43656 0.23135,-1.00211 0.307,-1.25677 0.12799,-0.4308 -0.25527,-0.46302 -5.50823,-0.46302 h -5.6458 l -1.40609,6.15156 c -0.77335,3.38336 -1.68698,7.34219 -2.0303,8.7974 -0.34332,1.45521 -3.07548,13.30192 -6.07146,26.32604 -2.99597,13.02411 -6.50874,28.26411 -7.80613,33.86666 -1.29739,5.60256 -2.4885,10.78177 -2.64691,11.50938 -0.1584,0.7276 -0.35119,1.53127 -0.42842,1.78594 -0.12041,0.39706 0.0442,0.46302 1.15556,0.46302 h 1.29598 z m 41.40948,8.53096 c -0.31791,-0.12809 -0.70486,-0.4699 -0.85989,-0.75958 -0.18673,-0.34891 -0.28188,-4.31156 -0.28188,-11.73938 v -11.21269 l 0.7276,-0.67682 c 0.40018,-0.37225 3.22792,-2.49845 6.28386,-4.72489 3.05593,-2.22644 7.10406,-5.18213 8.99583,-6.5682 7.61168,-5.57698 10.27816,-7.49547 10.57749,-7.61033 0.27458,-0.10537 3.57772,2.10339 3.57772,2.39237 0,0.0606 -3.42305,2.60354 -7.60677,5.65102 -4.18373,3.04748 -9.03552,6.58723 -10.78177,7.8661 -1.74625,1.27888 -4.15727,3.04451 -5.35782,3.92362 l -2.18281,1.5984 v 7.75611 c 0,4.26587 0.0893,7.75491 0.19844,7.75344 0.10914,-10e-4 4.60375,-3.22584 9.98802,-7.16524 5.38427,-3.93941 11.39693,-8.33474 13.36146,-9.76741 1.96453,-1.43267 5.76798,-4.21131 8.45211,-6.17475 l 4.88024,-3.5699 1.59346,1.14338 c 0.8764,0.62886 1.6295,1.2515 1.67355,1.38365 0.07,0.20998 -3.49314,2.85941 -22.2879,16.57257 -2.18282,1.59264 -4.56407,3.33994 -5.29167,3.8829 -5.48636,4.09407 -13.5782,9.8784 -14.09291,10.07409 -0.73381,0.27899 -0.80656,0.27767 -1.56636,-0.0285 z m -68.63127,-6.12477 c -4.42697,-3.22412 -11.08513,-8.08478 -14.79591,-10.80148 -3.71079,-2.71669 -9.90204,-7.24454 -13.75834,-10.06188 -3.8563,-2.81734 -8.04061,-5.87457 -9.29846,-6.79385 -1.25785,-0.91928 -2.35918,-1.85951 -2.4474,-2.08939 -0.0882,-0.22989 -0.16039,-5.44594 -0.16039,-11.59124 0,-10.87869 0.0142,-11.18852 0.53948,-11.75231 1.03032,-1.10593 2.01073,-0.80878 5.32451,1.61378 1.64975,1.20606 4.36877,3.1915 6.04226,4.41207 1.67349,1.22058 6.73365,4.91576 11.24479,8.21153 4.51115,3.29577 12.42881,9.06537 17.59479,12.82134 5.16599,3.75597 9.6606,7.11736 9.98802,7.46975 l 0.59532,0.64073 v 11.24206 11.24206 l -0.64943,0.64943 c -1.25147,1.25147 -1.55881,1.0947 -10.21924,-5.2126 z m 6.58403,-16.21588 c -0.0445,-0.0324 -2.75989,-2.00986 -6.03411,-4.39427 -3.27422,-2.38441 -8.33438,-6.0731 -11.24479,-8.1971 -2.91042,-2.12399 -9.10167,-6.64112 -13.75834,-10.03805 -4.65666,-3.39694 -9.1526,-6.69323 -9.99097,-7.32508 -0.83837,-0.63186 -1.58251,-1.14883 -1.65365,-1.14883 -0.0711,0 -0.12933,3.50628 -0.12933,7.79174 v 7.79174 l 0.88487,0.67493 c 0.48667,0.37121 0.96292,0.67492 1.05833,0.67492 0.0954,0 0.17346,-2.79797 0.17346,-6.21771 0,-3.41974 0.0693,-6.21771 0.15409,-6.21771 0.0847,0 4.0247,2.82774 8.75547,6.28386 4.73076,3.45612 9.51322,6.94636 10.62768,7.7561 1.11447,0.80974 6.31255,4.60145 11.5513,8.42604 l 9.525,6.95379 0.081,-1.37769 c 0.0445,-0.75773 0.0445,-1.40423 0,-1.43668 z m 106.21485,-14.36844 c -4.11427,-2.97856 -11.3147,-8.2328 -13.69167,-9.99097 -2.76494,-2.04512 -17.96266,-13.12058 -24.60625,-17.93198 -3.20146,-2.31855 -6.08873,-4.50684 -6.41615,-4.86287 l -0.59531,-0.64733 v -11.24206 -11.24207 l 0.64943,-0.64943 c 1.27997,-1.27997 1.33427,-1.24921 13.65204,7.73449 12.83499,9.36091 20.9939,15.30811 30.01624,21.87944 3.34697,2.43774 6.29377,4.67565 6.54843,4.97313 0.42537,0.4969 0.46302,1.46369 0.46302,11.88865 0,10.995 -0.0165,11.36422 -0.52916,11.87694 -1.04557,1.04557 -2.01508,0.73021 -5.49062,-1.78594 z m 1.73413,-18.38343 -0.08,-1.38395 -3.96875,-2.89966 c -22.18469,-16.20866 -38.15955,-27.8585 -38.43073,-28.02602 -0.26177,-0.16171 -0.33035,1.44015 -0.32892,7.68266 l 0.002,7.88697 0.87446,0.59531 c 0.48095,0.32742 0.95639,0.59531 1.05652,0.59531 0.10014,0 0.18207,-2.79797 0.18207,-6.21771 0,-3.41974 0.0637,-6.2177 0.14154,-6.2177 0.13718,0 14.77613,10.65594 31.85945,23.19105 4.59138,3.36898 8.44348,6.13719 8.56023,6.15156 0.11674,0.0144 0.17628,-0.59664 0.13229,-1.35782 z m -132.22573,3.09289 c -1.1347,-0.83532 -1.57664,-1.31007 -1.3917,-1.49501 0.14904,-0.14905 1.28539,-1.0023 2.5252,-1.89611 1.23982,-0.89381 6.96579,-5.06401 12.72438,-9.26711 l 10.47017,-7.642 v -7.76998 c 0,-4.27349 -0.072,-7.76997 -0.15996,-7.76997 -0.1596,0 -5.36181,3.74811 -14.12754,10.17868 -2.54661,1.8682 -8.55927,6.25272 -13.36145,9.74337 -4.80219,3.49065 -8.85159,6.43976 -8.99866,6.55359 -0.24925,0.1929 -3.34398,-1.89759 -3.51187,-2.37228 -0.087,-0.24603 39.92139,-29.54755 41.34748,-30.28224 0.81242,-0.41853 1.0678,-0.44228 1.74409,-0.16215 0.43577,0.1805 0.90682,0.54215 1.04678,0.80367 0.15142,0.28293 0.25447,5.01518 0.25447,11.68577 v 11.21028 l -0.8599,0.80701 c -0.47294,0.44386 -2.05052,1.65591 -3.50573,2.69344 -1.45521,1.03753 -3.89599,2.8016 -5.42396,3.92016 -1.52796,1.11855 -5.84443,4.27955 -9.59214,7.02444 -3.74771,2.74489 -6.97218,5.0514 -7.16549,5.12558 -0.1933,0.0742 -1.09968,-0.41593 -2.01417,-1.08914 z"
       id="path3" /></g></svg>
